<svg xmlns="http://www.w3.org/2000/svg" width="29.565" height="25.745" viewBox="0 0 29.565 25.745">
  <g id="Group_209" data-name="Group 209" transform="translate(-467.915 -246.145)">
    <path id="Path_1417" data-name="Path 1417" d="M140.249,29.383a.391.391,0,0,1-.079-.731c1.527-.758,4.788-2.736,5.384-6.035.755-4.17.606-9.761,7.145-13.278a1.3,1.3,0,0,1,1.594.262c1.173,1.312,2.942,4.76-.223,12.209-3.625,8.531-11.235,8.248-13.82,7.573" transform="translate(341.625 242.205)" fill="#fcdc92"/>
    <path id="Path_1418" data-name="Path 1418" d="M153.706,9.383c-.933.52-6.866,3.625-7.1,9.947a11.286,11.286,0,0,1-5.042,9.1c-.906.878-1.585.425-1.585.425a6.581,6.581,0,0,1-3.21-6.391,7.248,7.248,0,0,1-3.5-1.622c-4.325-3.4-6.157-10.54-1.982-14.743a.691.691,0,0,1,.755.748c.027.811.029,5.981,4.249,8.408a9.166,9.166,0,0,1,2.148,1.694c.266-.54.562-1.077.883-1.6-2.55-1.9-5.968-3.9-6.023-9.271a1,1,0,0,1,.754-1c1.316-.327,4.3-.3,8.254,4.532a12.106,12.106,0,0,1,.8,1.1c3.137-2.845,7.071-4.383,10.994-2.642a.9.9,0,0,1-.4,1.321" transform="translate(338.978 241.19)" fill="#fcdc92"/>
  </g>
</svg>
