<svg id="Group_42" data-name="Group 42" xmlns="http://www.w3.org/2000/svg" xmlns:xlink="http://www.w3.org/1999/xlink" width="60" height="60" viewBox="0 0 60 60">
  <defs>
    <clipPath id="clip-path">
      <rect id="Rectangle_17" data-name="Rectangle 17" width="60" height="60" fill="none"/>
    </clipPath>
  </defs>
  <g id="Group_31" data-name="Group 31" transform="translate(0 0)" clip-path="url(#clip-path)">
    <path id="Path_434" data-name="Path 434" d="M0,30A30,30,0,1,1,30,60,30,30,0,0,1,0,30" transform="translate(0 0)" fill="#fffdfa"/>
    <path id="Path_435" data-name="Path 435" d="M12.584,6.876A3.78,3.78,0,0,1,13.19,13a8.7,8.7,0,0,0-.73.72,1.37,1.37,0,0,0-.2,1.613,5.422,5.422,0,0,0,.71,1.021A.994.994,0,0,1,13,17.788a.969.969,0,0,1-1.4-.063,4.593,4.593,0,0,1-1.385-2.485,3.457,3.457,0,0,1,1.182-3.229c.277-.268.573-.519.822-.811A1.372,1.372,0,0,0,12.4,9.613a4.313,4.313,0,0,0-.6-.905c-.669-.773-.6-1.306.264-1.832Z" transform="translate(9.82 6.653)" fill="#a08b67"/>
    <path id="Path_436" data-name="Path 436" d="M15.665,6.876a3.844,3.844,0,0,1,1.792,2.367,3.4,3.4,0,0,1-1.07,3.7c-.277.268-.575.519-.822.811a1.313,1.313,0,0,0-.2,1.529,7.1,7.1,0,0,0,.8,1.153.949.949,0,0,1-.49,1.586,1.065,1.065,0,0,1-.8-.177,4.263,4.263,0,0,1-1.586-3.079,3.52,3.52,0,0,1,1.257-2.774c.262-.252.541-.49.779-.763a1.379,1.379,0,0,0,.214-1.588,4.325,4.325,0,0,0-.612-.935c-.663-.777-.584-1.34.289-1.824Z" transform="translate(12.851 6.653)" fill="#a08b67"/>
    <path id="Path_437" data-name="Path 437" d="M18.812,6.876a3.781,3.781,0,0,1,.716,6.052,10.553,10.553,0,0,0-.787.754,1.409,1.409,0,0,0-.207,1.7,6.822,6.822,0,0,0,.767,1.061.953.953,0,0,1-.515,1.582,1.046,1.046,0,0,1-.775-.175,4.2,4.2,0,0,1-1.6-3.331A3.549,3.549,0,0,1,17.659,12c.272-.26.559-.5.8-.787a1.373,1.373,0,0,0,.2-1.59,4.436,4.436,0,0,0-.618-.929c-.663-.769-.569-1.362.319-1.814Z" transform="translate(15.882 6.653)" fill="#a08b67"/>
    <path id="Path_438" data-name="Path 438" d="M28.121,30.922h4.72c.183,0,.364-.006.547,0a.946.946,0,0,1,.915.9.959.959,0,0,1-.83,1.017,1.843,1.843,0,0,1-.256.01q-12.254,0-24.508,0a1.008,1.008,0,0,1-1-.557.956.956,0,0,1,.909-1.379c1.609-.008,3.217,0,4.824,0h.4c-.152-.11-.23-.173-.315-.228a12.541,12.541,0,0,1-5.775-8.732,12.8,12.8,0,0,1-.14-1.922c-.02-1.6-.008-3.2-.006-4.793,0-.813.364-1.177,1.177-1.177H33.091c.883,0,1.216.336,1.218,1.226v.455c.39,0,.75-.006,1.112,0a4.926,4.926,0,0,1,.338,9.844c-.822.039-1.651.012-2.475.033a.484.484,0,0,0-.358.175,13.122,13.122,0,0,1-4.7,5,.762.762,0,0,0-.1.118M9.54,16.022c0,.728-.012,1.432,0,2.139.026,1.133,0,2.276.126,3.4a9.832,9.832,0,0,0,2.69,5.647A11.42,11.42,0,0,0,19.2,30.778a11.685,11.685,0,0,0,5.245-.384A11.249,11.249,0,0,0,30.3,26.312a9.423,9.423,0,0,0,1.983-5.078c.11-1.708.055-3.427.071-5.143,0-.018-.018-.035-.035-.069ZM34.309,17.7a18.687,18.687,0,0,1-.517,5.936,15.892,15.892,0,0,0,2.084-.016,2.792,2.792,0,0,0,2.459-2.178,2.849,2.849,0,0,0-.9-2.995,3.971,3.971,0,0,0-3.122-.748" transform="translate(7.348 13.613)" fill="#a08b67"/>
  </g>
</svg>
