<svg id="Group_62" data-name="Group 62" xmlns="http://www.w3.org/2000/svg" xmlns:xlink="http://www.w3.org/1999/xlink" width="60" height="60" viewBox="0 0 60 60">
  <defs>
    <clipPath id="clip-path">
      <rect id="Rectangle_31" data-name="Rectangle 31" width="60" height="60" fill="none"/>
    </clipPath>
  </defs>
  <g id="Group_61" data-name="Group 61" transform="translate(0 0)" clip-path="url(#clip-path)">
    <path id="Path_540" data-name="Path 540" d="M0,30A30,30,0,1,1,30,60,30,30,0,0,1,0,30" transform="translate(0 0)" fill="#edf0e9"/>
    <path id="Path_541" data-name="Path 541" d="M10.646,16.3a.493.493,0,0,1,.071.062.231.231,0,0,0,.021-.083.266.266,0,0,1-.092.021" transform="translate(13.86 21.2)" fill="#a08b67"/>
    <path id="Path_542" data-name="Path 542" d="M44.344,7.928H4.566a.575.575,0,0,0-.573.573v3.941a.575.575,0,0,0,.573.575H5.683L8.507,33.753a.584.584,0,0,0,.564.493H39.83a.574.574,0,0,0,.564-.493L43.23,13.018h1.114a.572.572,0,0,0,.564-.575V8.5a.571.571,0,0,0-.564-.573M11.527,31.288a2.223,2.223,0,0,1-.1-.246c1.238-1.054,3.163-1.238,4.882-1.393a11.928,11.928,0,0,0,2.875-.5,1.666,1.666,0,0,1-.113.718,4.371,4.371,0,0,1-2.6,2.21c-2.046.769-4.309.41-4.945-.787m7.431-7.523a10.955,10.955,0,0,0,2.919.265,1.661,1.661,0,0,1-.3.665A4.368,4.368,0,0,1,18.5,26.159c-2.18.214-4.277-.716-4.574-2.046a1.1,1.1,0,0,1-.032-.258c1.464-.7,3.368-.378,5.067-.09m-4.318-1.342a4.905,4.905,0,0,1,2.652-1.013c1.871-.184,3.674.481,4.339,1.5a12.3,12.3,0,0,1-2.477-.265,18.356,18.356,0,0,0-3.121-.359,7.051,7.051,0,0,0-1.393.134m4.024,5.7a12.311,12.311,0,0,1-2.468.389,12.553,12.553,0,0,0-4.413.951,4.736,4.736,0,0,1,2.293-1.657c1.761-.665,3.676-.5,4.588.318m-1.71,4.984a5.443,5.443,0,0,0,3.172-2.824,7.181,7.181,0,0,0,2.857,2.272,7.338,7.338,0,0,0,1.874.552Zm6.489-1.586c-2-.9-3.347-2.765-2.937-4.063a1.811,1.811,0,0,1,.092-.237c1.627.124,3.121,1.363,4.443,2.458a11.288,11.288,0,0,0,2.385,1.687,1.577,1.577,0,0,1-.585.421,4.3,4.3,0,0,1-3.4-.267m6.92-5.354a5.344,5.344,0,0,1-4.146-.018,9.2,9.2,0,0,0,3.2-1.443c1.229-.757,2.3-1.425,3.644-1.149a2.009,2.009,0,0,1-.113.4,4.322,4.322,0,0,1-2.59,2.21m2.159,1.259c1.874-.184,3.685.481,4.351,1.505a12.474,12.474,0,0,1-2.486-.267,18.51,18.51,0,0,0-3.112-.357,7.144,7.144,0,0,0-1.4.134,4.947,4.947,0,0,1,2.65-1.015m-3.481.237a3.748,3.748,0,0,0-.511.562,2.094,2.094,0,0,0-.163.256,5.577,5.577,0,0,0-.532-.767,6.946,6.946,0,0,0,1.206-.051m-.214-3.92a6.708,6.708,0,0,1-3.51,1.349H25.3a1.492,1.492,0,0,1,.074-.981,4.282,4.282,0,0,1,2.59-2.212c1.851-.707,3.879-.47,4.717.46a6.543,6.543,0,0,0-3.858,1.383m-1.043,6.531a11.761,11.761,0,0,1-2.016-1.464,12.745,12.745,0,0,0-3.8-2.458,4.925,4.925,0,0,1,2.8.451c1.71.778,2.949,2.251,3.011,3.471M26.34,33.109a3.66,3.66,0,0,0,.971-.285,2.654,2.654,0,0,0,1.331-1.25,4.926,4.926,0,0,0,2.569,1.535Zm2.813-2.979a2.345,2.345,0,0,1-.03-.256c1.473-.707,3.377-.378,5.078-.092a10.8,10.8,0,0,0,2.905.267,1.643,1.643,0,0,1-.3.665,4.344,4.344,0,0,1-3.071,1.464c-2.189.214-4.277-.718-4.585-2.049m10.186,2.979H34.959a4.944,4.944,0,0,0,2.774-1.729,2.608,2.608,0,0,0,.481-2.141v-.018c-.442-1.906-2.949-3.184-5.732-2.928a4.483,4.483,0,0,0,1.535-1.936,2.625,2.625,0,0,0-.092-2.2c-.912-1.74-3.706-2.323-6.358-1.319A5.409,5.409,0,0,0,24.312,23.7,2.684,2.684,0,0,0,24.2,25.39a6.118,6.118,0,0,0-1.577-.223,2.591,2.591,0,0,0,.359-1.945l-.009-.021c-.4-1.74-2.518-2.958-5.007-2.958a6.541,6.541,0,0,0-.787.041,5.448,5.448,0,0,0-3.89,1.924,2.6,2.6,0,0,0-.472,2.159,3.406,3.406,0,0,0,1.69,2.109c-.276.071-.552.163-.829.265a5.458,5.458,0,0,0-3.255,2.868,2.651,2.651,0,0,0,.092,2.2,3.149,3.149,0,0,0,1.381,1.3H9.573L6.829,13.018H42.072ZM43.77,11.88H5.13V9.065H43.77Z" transform="translate(5.199 10.322)" fill="#a08b67"/>
  </g>
</svg>
