<svg id="Group_48" data-name="Group 48" xmlns="http://www.w3.org/2000/svg" xmlns:xlink="http://www.w3.org/1999/xlink" width="60" height="60" viewBox="0 0 60 60">
  <defs>
    <clipPath id="clip-path">
      <rect id="Rectangle_24" data-name="Rectangle 24" width="60" height="60" fill="none"/>
    </clipPath>
  </defs>
  <g id="Group_47" data-name="Group 47" transform="translate(0 0)" clip-path="url(#clip-path)">
    <path id="Path_478" data-name="Path 478" d="M0,30A30,30,0,1,1,30,60,30,30,0,0,1,0,30" transform="translate(0 0)" fill="#edf0e9"/>
    <path id="Path_479" data-name="Path 479" d="M41.378,32.525c-.039.117-.085.235-.122.355A2.571,2.571,0,0,1,38.981,34.7c-.2.016-.394.023-.592.023h-10.8a21.749,21.749,0,0,0,.849,2.59,2.2,2.2,0,0,0,2.139,1.243c1.162,0,2.323,0,3.485,0,.555,0,.785.147.794.5.007.373-.242.541-.806.541H13.041c-.571,0-.817-.161-.815-.529s.235-.516.815-.516c1.128,0,2.254,0,3.379,0A2.4,2.4,0,0,0,18.9,36.686c.182-.633.361-1.268.559-1.964H18.98q-5.193,0-10.384,0A2.918,2.918,0,0,1,6.9,34.3a2.586,2.586,0,0,1-1.2-2.265V14.818c0-1.846,0-3.692,0-5.541A2.605,2.605,0,0,1,8.46,6.5q15.072,0,30.139,0a2.586,2.586,0,0,1,2.725,2.1.68.68,0,0,0,.053.087ZM6.747,27.377H40.333V9.339a1.594,1.594,0,0,0-1.8-1.8H8.54a1.591,1.591,0,0,0-1.793,1.8V27.377m0,1.089c0,1.3-.025,2.548.009,3.8A1.494,1.494,0,0,0,8.105,33.65a5.065,5.065,0,0,0,.592.028H38.38c.138,0,.279,0,.417-.009a1.559,1.559,0,0,0,1.535-1.644c0-.918,0-1.835,0-2.753v-.806ZM19.079,38.535h8.941a5.724,5.724,0,0,1-1.16-2.652,8.375,8.375,0,0,1-.237-.836c-.051-.251-.163-.331-.421-.329q-2.662.017-5.324,0c-.26,0-.343.092-.424.329-.4,1.169-.467,2.468-1.374,3.487" transform="translate(7.421 8.457)" fill="#a08b67"/>
    <path id="Path_480" data-name="Path 480" d="M7.656,24.11H37.047V8.473H7.656v6.491a1.751,1.751,0,0,1-.012.348.484.484,0,0,1-.5.44.492.492,0,0,1-.525-.456,1.6,1.6,0,0,1-.007-.279V8.153c0-.594.15-.748.732-.748H37.374c.585,0,.734.154.734.748V24.426c0,.587-.157.75-.739.75q-15.013,0-30.031,0c-.564,0-.727-.168-.727-.725V17.517a1.435,1.435,0,0,1,.007-.244.493.493,0,0,1,.527-.451.487.487,0,0,1,.5.442,1.767,1.767,0,0,1,.009.313V24.11Z" transform="translate(8.603 9.641)" fill="#a08b67"/>
    <path id="Path_481" data-name="Path 481" d="M15.9,18.052a1.563,1.563,0,1,1-1.57-1.563,1.556,1.556,0,0,1,1.57,1.563m-1.568.511a.512.512,0,1,0-.509-.534.5.5,0,0,0,.509.534" transform="translate(16.627 21.468)" fill="#a08b67"/>
  </g>
</svg>
