<svg id="Group_192" data-name="Group 192" xmlns="http://www.w3.org/2000/svg" xmlns:xlink="http://www.w3.org/1999/xlink" width="60" height="60" viewBox="0 0 60 60">
  <defs>
    <clipPath id="clip-path">
      <rect id="Rectangle_27" data-name="Rectangle 27" width="60" height="60" fill="none"/>
    </clipPath>
  </defs>
  <g id="Group_53" data-name="Group 53" transform="translate(0 0)" clip-path="url(#clip-path)">
    <path id="Path_509" data-name="Path 509" d="M0,30A30,30,0,1,1,30,60,30,30,0,0,1,0,30" transform="translate(0 0)" fill="#edf0e9"/>
    <path id="Path_510" data-name="Path 510" d="M10.218,25.608c-2.044,0-3.8-.773-4.533-2.175a3.1,3.1,0,0,1-.108-2.6,6.629,6.629,0,0,1,3.971-3.492c3.237-1.222,6.639-.534,7.741,1.572a3.1,3.1,0,0,1,.11,2.6A6.646,6.646,0,0,1,13.429,25a9.136,9.136,0,0,1-3.211.605m-.3-7.3A5.614,5.614,0,0,0,6.549,21.2a2.086,2.086,0,0,0,.058,1.752c.838,1.593,3.791,2.09,6.455,1.082a5.62,5.62,0,0,0,3.368-2.887,2.094,2.094,0,0,0-.06-1.752c-.836-1.593-3.789-2.09-6.452-1.082" transform="translate(6.957 21.787)" fill="#a08b67"/>
    <path id="Path_511" data-name="Path 511" d="M5.869,21.755a.52.52,0,0,1-.371-.886C7.344,19,10.164,18.735,12.653,18.5c1.586-.147,3.087-.288,3.865-.847a.52.52,0,1,1,.605.845c-1.006.725-2.567.87-4.374,1.038-2.311.216-4.931.46-6.51,2.063a.517.517,0,0,1-.371.154" transform="translate(6.965 22.859)" fill="#a08b67"/>
    <path id="Path_512" data-name="Path 512" d="M18.032,25.791A8.011,8.011,0,0,1,14.8,25.05c-3.154-1.423-5.071-4.316-4.362-6.586a3.1,3.1,0,0,1,1.763-1.92,6.654,6.654,0,0,1,5.276.341c3.156,1.425,5.073,4.316,4.364,6.586a3.1,3.1,0,0,1-1.763,1.918,4.981,4.981,0,0,1-2.042.4M14.241,17.18a3.972,3.972,0,0,0-1.618.313,2.089,2.089,0,0,0-1.2,1.282c-.534,1.717,1.2,4.155,3.8,5.327a5.608,5.608,0,0,0,4.422.338,2.084,2.084,0,0,0,1.2-1.28c.534-1.717-1.2-4.155-3.8-5.327a6.94,6.94,0,0,0-2.8-.654" transform="translate(13.392 21.019)" fill="#a08b67"/>
    <path id="Path_513" data-name="Path 513" d="M21.026,23.191a.553.553,0,0,1-.085-.007c-1.225-.2-2.431-1.2-3.826-2.359-1.779-1.476-3.794-3.144-6.031-3.144h-.035a.52.52,0,0,1,0-1.04c2.647.021,4.811,1.789,6.733,3.384C19,21.041,20.163,22,21.109,22.158a.52.52,0,0,1-.083,1.034" transform="translate(13.708 21.665)" fill="#a08b67"/>
    <path id="Path_514" data-name="Path 514" d="M21.215,25.246c-3.045,0-5.642-1.466-6.114-3.568a3.092,3.092,0,0,1,.569-2.544,6.645,6.645,0,0,1,4.74-2.346c3.439-.343,6.549,1.2,7.072,3.522a3.1,3.1,0,0,1-.569,2.544,6.63,6.63,0,0,1-4.74,2.343c-.322.032-.642.048-.958.048m-.7-7.421a5.615,5.615,0,0,0-4,1.918,2.08,2.08,0,0,0-.4,1.706c.394,1.756,3.115,3,5.953,2.716a5.627,5.627,0,0,0,4-1.918,2.084,2.084,0,0,0,.4-1.708C26.072,18.785,23.349,17.537,20.513,17.825Z" transform="translate(19.564 21.797)" fill="#a08b67"/>
    <path id="Path_515" data-name="Path 515" d="M15.56,19.7a.521.521,0,0,1-.265-.969c2.27-1.331,5.062-.854,7.525-.433,1.57.267,3.055.52,3.95.18a.521.521,0,1,1,.368.974c-1.16.44-2.7.175-4.5-.129-2.286-.389-4.878-.831-6.821.306a.518.518,0,0,1-.262.071" transform="translate(19.581 23.253)" fill="#a08b67"/>
    <path id="Path_516" data-name="Path 516" d="M17.652,29c-3.959,0-8.391-3.22-8.391-7.53,0-3.766,1.779-6.139,3.662-8.651,1.7-2.27,3.462-4.618,4.219-8.3a.515.515,0,0,1,.506-.414h0a.518.518,0,0,1,.509.412,19.988,19.988,0,0,0,4.194,8.211c1.9,2.548,3.688,4.954,3.688,8.743,0,4.309-4.431,7.53-8.391,7.53M17.658,6.62a23.071,23.071,0,0,1-3.9,6.823C11.9,15.915,10.3,18.051,10.3,21.47c0,3.713,3.881,6.489,7.35,6.489S25,25.183,25,21.47c0-3.444-1.614-5.612-3.483-8.121a23.613,23.613,0,0,1-3.86-6.729" transform="translate(12.057 5.344)" fill="#a08b67"/>
    <path id="Path_517" data-name="Path 517" d="M15.442,17.5a.657.657,0,0,1-.092-.009,6.661,6.661,0,0,1-1.457-.437.519.519,0,1,1,.407-.955,5.682,5.682,0,0,0,1.232.368.521.521,0,0,1-.09,1.034m-2.93-1.365a.52.52,0,0,1-.331-.12,5.46,5.46,0,0,1-2.111-4.141.52.52,0,0,1,1.04,0,4.428,4.428,0,0,0,1.733,3.34.52.52,0,0,1-.331.921" transform="translate(13.109 14.776)" fill="#a08b67"/>
    <path id="Path_518" data-name="Path 518" d="M34.765,22.433h0a.519.519,0,0,1-.5-.4c-.649-2.723-1.966-4.065-4.146-4.217a.52.52,0,0,1,0-1.038c2.18-.152,3.5-1.492,4.146-4.215a.519.519,0,0,1,1.011,0c.649,2.725,1.966,4.065,4.146,4.217a.52.52,0,0,1,0,1.038c-2.18.152-3.5,1.494-4.146,4.217a.52.52,0,0,1-.506.4M32.231,17.3a5.307,5.307,0,0,1,2.534,2.9A5.328,5.328,0,0,1,37.3,17.3a5.325,5.325,0,0,1-2.537-2.905A5.3,5.3,0,0,1,32.231,17.3m-21.4,4.974a.52.52,0,0,1-.506-.4c-.649-2.723-1.966-4.063-4.146-4.217a.519.519,0,0,1,0-1.036c2.18-.154,3.5-1.494,4.146-4.217a.52.52,0,0,1,1.013,0c.647,2.723,1.966,4.063,4.146,4.217a.519.519,0,0,1,0,1.036c-2.18.154-3.5,1.494-4.146,4.217a.52.52,0,0,1-.506.4M8.291,17.137a5.308,5.308,0,0,1,2.537,2.905,5.308,5.308,0,0,1,2.537-2.905,5.308,5.308,0,0,1-2.537-2.905,5.308,5.308,0,0,1-2.537,2.905" transform="translate(7.411 15.625)" fill="#a08b67"/>
  </g>
</svg>
