<?xml version="1.0" encoding="UTF-8"?><svg id="Layer_1" xmlns="http://www.w3.org/2000/svg" viewBox="0 0 16 16"><defs><style>.cls-1{fill:#fcdc92;}.cls-2{fill:#57341e;}</style></defs><g id="Group_3"><g id="Group_2"><g id="Group_1"><path id="Path_36" class="cls-2" d="M7.64,13.92c-.09-.02-.15-.11-.12-.21,.01-.05,.04-.09,.09-.11,.66-.33,2.07-1.18,2.32-2.61,.33-1.8,.26-4.21,3.09-5.73,.23-.13,.51-.08,.69,.11,.51,.57,1.27,2.06-.1,5.27-.87,2.45-3.44,3.86-5.97,3.27"/><path id="Path_37" class="cls-2" d="M12.31,4.85c-.4,.22-2.96,1.57-3.07,4.29-.04,1.59-.86,3.05-2.18,3.93-.39,.38-.68,.18-.68,.18-.97-.57-1.51-1.65-1.39-2.76-.56-.09-1.08-.34-1.51-.7-1.87-1.47-2.66-4.55-.86-6.37,.16-.02,.31,.1,.33,.27,0,.02,0,.04,0,.06,.01,.35,.01,2.58,1.84,3.63,.34,.2,.66,.44,.93,.73,.11-.23,.24-.46,.38-.69-1.1-.82-2.58-1.68-2.6-4,0-.2,.13-.38,.33-.43,.57-.14,1.86-.13,3.56,1.96,.12,.15,.24,.31,.35,.47,1.35-1.23,3.05-1.89,4.75-1.14,.12,.18,.07,.42-.11,.54-.02,.01-.04,.02-.06,.03"/><path id="Path_38" class="cls-1" d="M8,15.72C3.74,15.72,.28,12.26,.28,8S3.74,.28,8,.28s7.72,3.45,7.72,7.72h0c0,4.26-3.46,7.71-7.72,7.72M8,.65c-4.06,0-7.35,3.29-7.35,7.35,0,4.06,3.29,7.35,7.35,7.35,4.06,0,7.35-3.29,7.35-7.35,0-4.06-3.29-7.35-7.35-7.36"/></g></g></g></svg>