<svg id="Group_41" data-name="Group 41" xmlns="http://www.w3.org/2000/svg" xmlns:xlink="http://www.w3.org/1999/xlink" width="60" height="60" viewBox="0 0 60 60">
  <defs>
    <clipPath id="clip-path">
      <rect id="Rectangle_19" data-name="Rectangle 19" width="60" height="60" fill="none"/>
    </clipPath>
  </defs>
  <g id="Group_35" data-name="Group 35" transform="translate(0 0)" clip-path="url(#clip-path)">
    <path id="Path_444" data-name="Path 444" d="M0,30A30,30,0,1,1,30,60,30,30,0,0,1,0,30" transform="translate(0 0)" fill="#fffdfa"/>
    <path id="Path_445" data-name="Path 445" d="M5.093,19.559q3.722-4.607,7.443-9.214c.437-.541.744-.59,1.34-.214,1.218.771,2.428,1.558,3.656,2.314a5.052,5.052,0,0,0,1.2.533c1.194.352,2.4.669,3.606.982a1.2,1.2,0,0,0,.6,0c1.263-.348,2.52-.724,3.784-1.076a2.864,2.864,0,0,1,.763-.11c1.665-.01,3.329,0,4.994-.014a1.3,1.3,0,0,0,.649-.187c1.291-.8,2.568-1.627,3.852-2.442.588-.374.915-.319,1.336.224q3.226,4.188,6.446,8.378c.427.555.386.905-.151,1.369-1.143.986-2.29,1.966-3.427,2.957a1.46,1.46,0,0,0-.348.455q-1.151,2.385-2.278,4.783a.594.594,0,0,0-.02.453A2.767,2.767,0,0,1,36.2,32.83a.518.518,0,0,0-.108.03,2.885,2.885,0,0,1-2.839,2.814,2.849,2.849,0,0,1-.807,1.954,2.82,2.82,0,0,1-1.989.834,2.813,2.813,0,0,1-4.9,1.877,2.9,2.9,0,0,1-3,1.157,2.745,2.745,0,0,1-2.147-2.371c-.254-.012-.51-.01-.763-.039a2.718,2.718,0,0,1-2.4-2.44c-.024-.2-.031-.35-.315-.382a2.709,2.709,0,0,1-2.5-2.865V33.12c-.214-.055-.419-.092-.612-.159A2.753,2.753,0,0,1,12.5,28.736a.412.412,0,0,0-.01-.6c-1.033-1.371-2.04-2.76-3.079-4.126a6.1,6.1,0,0,0-.862-.838c-1-.872-2.013-1.729-3.014-2.6a5.647,5.647,0,0,1-.447-.472Zm13.352,9.377a2.832,2.832,0,0,1,3.388,2.755,2.826,2.826,0,0,1,2.727,3.386c.02.016.037.043.059.047a2.778,2.778,0,0,1,2.042,3.837c-.033.075-.02.238.03.268a2.847,2.847,0,0,0,.879.443,1.064,1.064,0,0,0,1.155-.62,1.172,1.172,0,0,0-.191-1.375c-.525-.559-1.074-1.094-1.613-1.641-.083-.083-.167-.163-.246-.25a.788.788,0,0,1-.024-1.122.777.777,0,0,1,1.12.012c.606.588,1.194,1.2,1.787,1.8a1.2,1.2,0,1,0,1.735-1.665c-.946-.984-1.918-1.944-2.877-2.914a6.983,6.983,0,0,1-.563-.6.765.765,0,0,1,.055-1,.783.783,0,0,1,1.029-.083,2.427,2.427,0,0,1,.285.266q1.552,1.564,3.1,3.134a1.231,1.231,0,0,0,1.261.417,1.2,1.2,0,0,0,.484-2.072q-2.311-2.349-4.636-4.687a5.494,5.494,0,0,1-.453-.482.755.755,0,0,1,.079-1.027.78.78,0,0,1,1-.059,3.393,3.393,0,0,1,.368.346q2.361,2.385,4.72,4.769a1.21,1.21,0,1,0,1.688-1.714q-4.495-4.5-9-8.986a1,1,0,0,0-.575-.242c-.919-.085-1.842-.124-2.76-.209a.478.478,0,0,0-.553.279q-.868,1.591-1.783,3.154a2.765,2.765,0,1,1-4.795-2.757c.9-1.625,1.83-3.233,2.745-4.85.075-.132.146-.27.24-.445-.734-.2-1.43-.4-2.133-.565-.1-.026-.281.089-.364.187q-3.373,4.093-6.735,8.195c-.1.128-.2.258-.3.392l3.012,4.057a2.811,2.811,0,0,1,4.612,1.615m18.829-1.619c.667-1.4,1.3-2.753,1.962-4.092a.55.55,0,0,0-.073-.687q-3.137-3.961-6.247-7.939a.657.657,0,0,0-.588-.277c-1.56.012-3.121,0-4.681.01a2.5,2.5,0,0,0-.651.091q-2.547.726-5.086,1.474a.6.6,0,0,0-.334.226q-1.455,2.535-2.88,5.086a1.16,1.16,0,0,0,.293,1.45,1.2,1.2,0,0,0,1.855-.392q1.048-1.824,2.072-3.664a.938.938,0,0,1,.984-.537q1.945.151,3.892.268a1.392,1.392,0,0,1,.948.456q4.088,4.108,8.191,8.2c.1.1.2.195.344.329M13.443,11.711,6.964,19.74c.94.807,1.842,1.582,2.76,2.371l6.882-8.386c-1.07-.683-2.1-1.336-3.164-2.015M40.43,21.627l2.758-2.377-5.8-7.528-3.166,2.015c2.076,2.638,4.128,5.249,6.2,7.89M17.343,34.721a1.54,1.54,0,0,0,.553-.242c.716-.677,1.43-1.364,2.091-2.1a1.182,1.182,0,0,0-1.722-1.607q-1.021.962-1.983,1.985a1.1,1.1,0,0,0-.163,1.275,1.219,1.219,0,0,0,1.224.685m1.377,1.6a1.39,1.39,0,0,0,.789,1.12,1.106,1.106,0,0,0,1.271-.2c.659-.626,1.308-1.265,1.93-1.93a1.191,1.191,0,0,0-1.727-1.641c-.618.6-1.234,1.194-1.814,1.826a3.9,3.9,0,0,0-.449.824m6.6,1.358a1.185,1.185,0,0,0-1.879-.781,10.775,10.775,0,0,0-1.21,1.206,1.088,1.088,0,0,0-.1,1.277A1.128,1.128,0,0,0,23.249,40a3.086,3.086,0,0,0,2.066-2.326M15.69,28.144a2.515,2.515,0,0,0-.7.293,11.116,11.116,0,0,0-1.212,1.2,1.164,1.164,0,0,0,.112,1.558,1.176,1.176,0,0,0,1.562.1,10.459,10.459,0,0,0,1.153-1.153,1.133,1.133,0,0,0,.14-1.31,1.273,1.273,0,0,0-1.059-.693" transform="translate(4.928 9.566)" fill="#a08b67"/>
    <path id="Path_446" data-name="Path 446" d="M24.022,7.818a3.651,3.651,0,0,1-.4.667q-2.606,2.633-5.234,5.242a.774.774,0,0,1-1.145.053.756.756,0,0,1,.026-1.141q2.638-2.656,5.291-5.295a.7.7,0,0,1,.887-.169,3.084,3.084,0,0,1,.576.643" transform="translate(16.442 6.848)" fill="#a08b67"/>
    <path id="Path_447" data-name="Path 447" d="M16.9,13.057a.806.806,0,0,1-1.127.852,1.532,1.532,0,0,1-.334-.264q-2.547-2.547-5.1-5.1a.855.855,0,0,1-.319-.9.773.773,0,0,1,1.192-.419,2.017,2.017,0,0,1,.287.262q2.5,2.494,4.988,4.992a4.156,4.156,0,0,1,.413.575" transform="translate(9.656 6.855)" fill="#a08b67"/>
    <path id="Path_448" data-name="Path 448" d="M16.414,10.541c0,.7,0,1.4,0,2.1a.788.788,0,1,1-1.56,0q-.006-2.1,0-4.209a.786.786,0,1,1,1.56,0c.006.7,0,1.4,0,2.1" transform="translate(14.366 7.307)" fill="#a08b67"/>
    <path id="Path_449" data-name="Path 449" d="M15.628,7.517a.779.779,0,1,1,.781-.759.782.782,0,0,1-.781.759" transform="translate(14.369 5.765)" fill="#a08b67"/>
  </g>
</svg>
