<svg id="Group_38" data-name="Group 38" xmlns="http://www.w3.org/2000/svg" xmlns:xlink="http://www.w3.org/1999/xlink" width="60" height="60" viewBox="0 0 60 60">
  <defs>
    <clipPath id="clip-path">
      <rect id="Rectangle_20" data-name="Rectangle 20" width="60" height="60" fill="none"/>
    </clipPath>
  </defs>
  <g id="Group_37" data-name="Group 37" transform="translate(0 0)" clip-path="url(#clip-path)">
    <path id="Path_450" data-name="Path 450" d="M0,30A30,30,0,1,1,30,60,30,30,0,0,1,0,30" transform="translate(0 0)" fill="#fffdfa"/>
    <path id="Path_451" data-name="Path 451" d="M5.583,16.741a4.952,4.952,0,0,1,.49-.96,2.022,2.022,0,0,1,3.418.468c.433.944.824,1.909,1.234,2.861.053.124.116.242.183.386a3.166,3.166,0,0,1,1.926-.445,2.785,2.785,0,0,1,1.6.683A14.651,14.651,0,0,0,18.4,22.2a5.457,5.457,0,0,1,3.044,4.006,8.594,8.594,0,0,1,.175,1.562c.028.4.006.8.006,1.216.14.035.262.061.38.1a1.2,1.2,0,0,1,.889,1.094c.018,1.792.024,3.585,0,5.377a1.2,1.2,0,0,1-1.24,1.169q-3.553.024-7.107,0a1.224,1.224,0,0,1-1.253-1.245q-.035-2.591,0-5.188a3.7,3.7,0,0,1,.273-.931c-1.2-1.192-2.428-2.44-3.681-3.667a7.993,7.993,0,0,1-1.726-2.483C7.417,21.54,6.651,19.882,5.9,18.217c-.118-.26-.212-.531-.317-.8ZM11.49,20.69c.307.346.58.689.885,1,.931.946,1.877,1.879,2.812,2.823a.639.639,0,1,1-.854.948c-1.143-1.143-2.3-2.274-3.4-3.451a11,11,0,0,1-1.8-3.359c-.272-.618-.521-1.245-.8-1.861a.753.753,0,0,0-1-.4A.767.767,0,0,0,6.939,17.4c.031.083.069.161.1.24.783,1.72,1.57,3.437,2.345,5.159a6.2,6.2,0,0,0,1.3,1.871c1.375,1.371,2.743,2.751,4.128,4.112a.869.869,0,0,0,.547.226c1.541.018,3.081.01,4.622.008.11,0,.218-.014.344-.022a14.049,14.049,0,0,0-.012-1.706c-.228-1.859-.96-3.392-2.857-4.1-.175-.065-.342-.15-.512-.23a14.243,14.243,0,0,1-3.27-2.182,1.623,1.623,0,0,0-2.186-.083m10.117,9.629H14.6v5.094h7.008Z" transform="translate(5.402 14.548)" fill="#a08b67"/>
    <path id="Path_452" data-name="Path 452" d="M20.81,6.766c.447.122.9.211,1.334.37a6.309,6.309,0,0,1,2.8,2.139,10.547,10.547,0,0,1-.118,12.441,5.742,5.742,0,0,1-5.1,2.355,4.245,4.245,0,0,1-.519-.079.647.647,0,0,1-.6-.763,4.569,4.569,0,0,1,1.173-2.9,3.3,3.3,0,0,0,.818-2.316,3.684,3.684,0,0,0-.927-2.28,4.528,4.528,0,0,1-.657-4.9,5.92,5.92,0,0,1,.771-1.19,3.862,3.862,0,0,0,.754-1.57,3.788,3.788,0,0,0-1.9.313,5.6,5.6,0,0,0-2.552,2.355,3.749,3.749,0,0,1-.216.352.62.62,0,0,1-.838.161.61.61,0,0,1-.238-.818,6.556,6.556,0,0,1,4.637-3.6c.085-.016.167-.045.25-.069ZM21.851,8.4a13.013,13.013,0,0,1-.557,1.273,13.088,13.088,0,0,1-.8,1.131,3.42,3.42,0,0,0,.13,4.091,7.162,7.162,0,0,1,.651.915,4.651,4.651,0,0,1-.508,5.334,3.535,3.535,0,0,0-.82,1.663c.153,0,.275,0,.4,0a4.655,4.655,0,0,0,3.6-2.031,9.339,9.339,0,0,0,.222-10.355A5.532,5.532,0,0,0,21.851,8.4" transform="translate(14.243 6.546)" fill="#a08b67"/>
    <path id="Path_453" data-name="Path 453" d="M23.486,6.766c.622.433.6.915-.047,1.295-.476.277-.952.557-1.432.824a.637.637,0,0,1-.942-.2.653.653,0,0,1,.315-.917q.826-.5,1.657-1Z" transform="translate(20.296 6.546)" fill="#a08b67"/>
    <path id="Path_454" data-name="Path 454" d="M9.085,6.766c.575.333,1.149.661,1.722,1a.647.647,0,1,1-.643,1.108c-.458-.258-.913-.523-1.367-.787-.683-.4-.712-.86-.087-1.318Z" transform="translate(7.993 6.546)" fill="#a08b67"/>
    <path id="Path_455" data-name="Path 455" d="M25.748,29.311a9.188,9.188,0,0,1,.222,1.308c.024,1.529.012,3.058.01,4.586a1.336,1.336,0,0,1-1.517,1.527q-3.308,0-6.619,0a1.312,1.312,0,0,1-1.491-1.5q0-2.237,0-4.474c0-1.169.171-1.411,1.287-1.787,0-.423,0-.86,0-1.3a6.593,6.593,0,0,1,1.135-3.677,4.878,4.878,0,0,1,2.314-1.9,12.15,12.15,0,0,0,3.388-2.06,3.053,3.053,0,0,1,3.88-.565c.047-.091.1-.183.144-.279.431-1,.84-2.011,1.3-3a1.934,1.934,0,0,1,1.907-1.159,2.012,2.012,0,0,1,1.851,1.36,1.938,1.938,0,0,1-.053,1.5c-.881,1.95-1.737,3.913-2.682,5.834a7.68,7.68,0,0,1-1.348,1.834c-1.242,1.308-2.54,2.562-3.727,3.746m2.027-8.634a1.631,1.631,0,0,0-2.17.083,15.8,15.8,0,0,1-4.187,2.615,3.761,3.761,0,0,0-1.3.984A5.929,5.929,0,0,0,18.954,29a1.8,1.8,0,0,0,.191.02c1.617,0,3.235.006,4.85-.008a.718.718,0,0,0,.443-.212c1.417-1.4,2.841-2.8,4.222-4.232a5.872,5.872,0,0,0,1.064-1.489c.887-1.849,1.718-3.727,2.558-5.6a1.021,1.021,0,0,0,.073-.576.679.679,0,0,0-.665-.565.75.75,0,0,0-.789.515c-.405.942-.826,1.879-1.208,2.831a8.747,8.747,0,0,1-2.127,3.15c-.519.49-1.013,1.007-1.519,1.513-.362.362-.724.728-1.092,1.088a.55.55,0,0,1-.718.122A.877.877,0,0,1,23.881,25a.9.9,0,0,1,.285-.575c.909-.933,1.842-1.844,2.755-2.774.3-.3.557-.636.854-.976m-3.109,9.651h-7v5.1h7Z" transform="translate(15.82 14.548)" fill="#a08b67"/>
    <path id="Path_456" data-name="Path 456" d="M18.293,22.15a8.972,8.972,0,0,1-8.405-7.569,5.609,5.609,0,0,1,.2-2.56,4.812,4.812,0,0,1,5.175-3.2,8.96,8.96,0,0,1,7.854,7.5,4.8,4.8,0,0,1-3.638,5.655,11.952,11.952,0,0,1-1.186.167m3.453-3.65a10.3,10.3,0,0,0,.126-1.521,7.159,7.159,0,0,0-2.526-4.994,6.925,6.925,0,0,0-4.734-1.9,3.266,3.266,0,0,0-2.542,1.151,6.51,6.51,0,0,0,1.35.384,4.072,4.072,0,0,1,3.717,3.8,2.861,2.861,0,0,0,2.422,2.6c.695.126,1.379.3,2.188.48M11.318,12.434a3.769,3.769,0,0,0-.189,1.724A7.5,7.5,0,0,0,14.8,19.779a6.015,6.015,0,0,0,3.845,1.045,3.481,3.481,0,0,0,2.391-1.167c-.5-.126-.917-.234-1.338-.336a8.262,8.262,0,0,1-1.271-.309,4.053,4.053,0,0,1-2.576-3.62,2.845,2.845,0,0,0-2.367-2.477c-.71-.112-1.4-.309-2.16-.48" transform="translate(9.51 8.51)" fill="#a08b67"/>
    <path id="Path_457" data-name="Path 457" d="M21.586,14.058a10.027,10.027,0,0,1,2.241,1.393c.112.112.057.482-.037.679a.487.487,0,0,1-.679.226c-.649-.342-1.293-.706-1.912-1.1a.515.515,0,0,1-.15-.708,2.623,2.623,0,0,1,.537-.49" transform="translate(20.289 13.602)" fill="#a08b67"/>
    <path id="Path_458" data-name="Path 458" d="M11.209,14.882a1.23,1.23,0,0,1-.3.4c-.545.348-1.114.669-1.684.98a.629.629,0,0,1-.876-.24.617.617,0,0,1,.254-.87c.545-.331,1.094-.655,1.655-.956.462-.246.962.059.952.687" transform="translate(7.991 13.652)" fill="#a08b67"/>
    <path id="Path_459" data-name="Path 459" d="M8.776,11.96c-.313,0-.626.016-.939,0a.631.631,0,0,1-.022-1.261c.663-.024,1.328-.024,1.989,0a.631.631,0,0,1-.016,1.261c-.336.02-.675,0-1.013,0" transform="translate(6.986 10.33)" fill="#a08b67"/>
    <path id="Path_460" data-name="Path 460" d="M23.473,11.963c-.313,0-.626.014-.939,0a.611.611,0,0,1-.634-.6.6.6,0,0,1,.618-.661c.649-.024,1.3-.024,1.952,0a.633.633,0,0,1-.022,1.265c-.325.018-.651,0-.976,0" transform="translate(21.19 10.329)" fill="#a08b67"/>
    <path id="Path_461" data-name="Path 461" d="M13.425,23.78c.626,0,.95.228.937.657s-.321.622-.935.622c-.114,0-.226.006-.338,0a.638.638,0,1,1,0-1.275c.112-.008.226,0,.338,0" transform="translate(12.029 23.006)" fill="#a08b67"/>
    <path id="Path_462" data-name="Path 462" d="M18.27,25.06c-.632,0-.952-.22-.942-.651s.319-.63.927-.63c.126,0,.252-.006.376,0a.638.638,0,0,1-.022,1.275c-.112.008-.226,0-.338,0" transform="translate(16.764 23.005)" fill="#a08b67"/>
  </g>
</svg>
