<svg xmlns="http://www.w3.org/2000/svg" xmlns:xlink="http://www.w3.org/1999/xlink" width="60" height="59.998" viewBox="0 0 60 59.998">
  <defs>
    <clipPath id="clip-path">
      <rect id="Rectangle_78" data-name="Rectangle 78" width="36.802" height="28.187" fill="#a08b67"/>
    </clipPath>
  </defs>
  <g id="Group_191" data-name="Group 191" transform="translate(0 0)">
    <g id="Group_122" data-name="Group 122" transform="translate(0 0)">
      <path id="Path_529" data-name="Path 529" d="M0,30A30,30,0,1,1,30,60,30,30,0,0,1,0,30" transform="translate(0 0)" fill="#edf0e9"/>
      <g id="Group_124" data-name="Group 124" transform="translate(11.599 15.906)">
        <g id="Group_123" data-name="Group 123" clip-path="url(#clip-path)">
          <path id="Path_1311" data-name="Path 1311" d="M190.844,262.854a7.965,7.965,0,0,1-3.583-.84.563.563,0,1,1,.5-1.008,6.928,6.928,0,0,0,6.949-.459.563.563,0,1,1,.631.934,8.005,8.005,0,0,1-4.5,1.374" transform="translate(-172.909 -240.89)" fill="#a08b67"/>
          <path id="Path_1312" data-name="Path 1312" d="M147.216,86.816a.563.563,0,0,1-.563-.563,6.919,6.919,0,1,0-13.838,0,.563.563,0,0,1-1.127,0,8.045,8.045,0,0,1,16.091,0,.563.563,0,0,1-.563.563" transform="translate(-121.799 -72.334)" fill="#a08b67"/>
          <path id="Path_1313" data-name="Path 1313" d="M189.016,196.076a4.1,4.1,0,0,1-4.1-4.1.563.563,0,0,1,.563-.563h7.071a.563.563,0,0,1,.563.563,4.1,4.1,0,0,1-4.1,4.1M186.1,192.54a2.973,2.973,0,0,0,5.837,0Z" transform="translate(-171.03 -177.039)" fill="#a08b67"/>
          <path id="Path_1314" data-name="Path 1314" d="M182.516,151.148a.563.563,0,0,1-.563-.563.29.29,0,1,0-.581,0,.563.563,0,0,1-1.127,0,1.417,1.417,0,1,1,2.834,0,.563.563,0,0,1-.563.563" transform="translate(-166.71 -137.965)" fill="#a08b67"/>
          <path id="Path_1315" data-name="Path 1315" d="M262.4,151.148a.563.563,0,0,1-.563-.563.29.29,0,1,0-.581,0,.563.563,0,0,1-1.126,0,1.417,1.417,0,1,1,2.834,0,.563.563,0,0,1-.563.563" transform="translate(-240.592 -137.965)" fill="#a08b67"/>
          <path id="Path_1316" data-name="Path 1316" d="M315.89,197.227a6.806,6.806,0,1,1,2.846-.63,6.8,6.8,0,0,1-2.846.63m-.007-12.465a5.673,5.673,0,1,0,1.959.351,5.648,5.648,0,0,0-1.959-.351" transform="translate(-285.88 -169.844)" fill="#a08b67"/>
          <path id="Path_1317" data-name="Path 1317" d="M359.008,234.317a.564.564,0,0,1-.529-.758.147.147,0,1,0-.277-.1.563.563,0,0,1-1.057-.389,1.274,1.274,0,0,1,2.391.88.563.563,0,0,1-.529.369" transform="translate(-330.292 -214.794)" fill="#a08b67"/>
          <path id="Path_1318" data-name="Path 1318" d="M421.425,257.279a.563.563,0,0,1-.529-.758.147.147,0,1,0-.277-.1.563.563,0,0,1-1.057-.389,1.274,1.274,0,1,1,2.391.88.563.563,0,0,1-.529.369" transform="translate(-388.021 -236.031)" fill="#a08b67"/>
          <path id="Path_1319" data-name="Path 1319" d="M6.787,207.967a6.811,6.811,0,1,1,2.224-.376,6.766,6.766,0,0,1-2.224.376m0-12.462a5.666,5.666,0,1,0,5.36,3.816,5.641,5.641,0,0,0-5.36-3.816" transform="translate(0 -179.78)" fill="#a08b67"/>
          <path id="Path_1320" data-name="Path 1320" d="M59.847,292.716a3.525,3.525,0,0,1-2.708-1.265.563.563,0,0,1,.867-.72,2.381,2.381,0,0,0,4.213-1.467.563.563,0,1,1,1.126.026,3.522,3.522,0,0,1-2.361,3.235,3.477,3.477,0,0,1-1.136.19" transform="translate(-52.727 -267.031)" fill="#a08b67"/>
          <path id="Path_1321" data-name="Path 1321" d="M38.142,267.113a.563.563,0,0,1-.532-.379,1.274,1.274,0,1,1,2.408-.832.563.563,0,0,1-1.065.368.147.147,0,0,0-.187-.091.147.147,0,0,0-.091.187.564.564,0,0,1-.532.747" transform="translate(-34.72 -245.138)" fill="#a08b67"/>
          <path id="Path_1322" data-name="Path 1322" d="M101,245.39a.564.564,0,0,1-.532-.379,1.274,1.274,0,1,1,2.408-.832.563.563,0,1,1-1.065.368.147.147,0,0,0-.187-.091.148.148,0,0,0-.091.188.564.564,0,0,1-.532.747" transform="translate(-92.858 -225.047)" fill="#a08b67"/>
          <path id="Path_1323" data-name="Path 1323" d="M361.182,280.1a1.549,1.549,0,0,1-.587-.114,2.128,2.128,0,1,1,2.453-1.271,2.108,2.108,0,0,1-1.866,1.385m.4-3a1,1,0,0,0-.812.685c-.2.489-.085,1.018.25,1.154s.786-.162.985-.652.085-1.018-.25-1.155a.457.457,0,0,0-.173-.033" transform="translate(-332.545 -255.255)" fill="#a08b67"/>
          <path id="Path_1324" data-name="Path 1324" d="M60.272,5.76a.563.563,0,0,1-.5-.3l-1.7-3.2a.563.563,0,1,1,.994-.529l1.7,3.2a.563.563,0,0,1-.5.828" transform="translate(-53.651 -1.328)" fill="#a08b67"/>
          <path id="Path_1325" data-name="Path 1325" d="M142.142,4.519a.564.564,0,0,1-.547-.7l.85-3.391A.563.563,0,1,1,143.538.7l-.85,3.391a.563.563,0,0,1-.546.426" transform="translate(-130.945 0)" fill="#a08b67"/>
          <path id="Path_1326" data-name="Path 1326" d="M7.093,81.3a.563.563,0,0,1-.192-.034l-3.287-1.19A.563.563,0,0,1,4,79.017l3.288,1.19A.563.563,0,0,1,7.093,81.3" transform="translate(-2.998 -73.052)" fill="#a08b67"/>
          <path id="Path_1327" data-name="Path 1327" d="M391.851,36.621a.563.563,0,0,1-.495-.831L393.08,32.6a.563.563,0,0,1,.991.536l-1.724,3.185a.563.563,0,0,1-.5.3" transform="translate(-361.903 -29.883)" fill="#a08b67"/>
          <path id="Path_1328" data-name="Path 1328" d="M423.587,108.771a.563.563,0,0,1-.188-1.094l3.3-1.167a.563.563,0,0,1,.376,1.062l-3.3,1.167a.563.563,0,0,1-.188.032" transform="translate(-391.254 -98.481)" fill="#a08b67"/>
          <path id="Path_1329" data-name="Path 1329" d="M319.146,31.082a.564.564,0,0,1-.547-.43l-.826-3.4a.563.563,0,1,1,1.095-.266l.826,3.4a.564.564,0,0,1-.548.7" transform="translate(-293.894 -24.563)" fill="#a08b67"/>
          <path id="Path_1330" data-name="Path 1330" d="M78.347,76.681a.563.563,0,0,1-.563-.563A3.685,3.685,0,0,1,82.9,72.724a.563.563,0,0,1-.439,1.038,2.559,2.559,0,0,0-3.552,2.356.563.563,0,0,1-.563.563" transform="translate(-71.942 -66.994)" fill="#a08b67"/>
        </g>
      </g>
    </g>
  </g>
</svg>
