<svg id="Group_194" data-name="Group 194" xmlns="http://www.w3.org/2000/svg" xmlns:xlink="http://www.w3.org/1999/xlink" width="132.081" height="30" viewBox="0 0 132.081 30">
  <defs>
    <clipPath id="clip-path">
      <rect id="Rectangle_113" data-name="Rectangle 113" width="132.081" height="30" fill="#686f5f"/>
    </clipPath>
  </defs>
  <g id="Group_193" data-name="Group 193" transform="translate(0 0)" clip-path="url(#clip-path)">
    <path id="Path_1361" data-name="Path 1361" d="M34.449,9.725c.483,3.242-1.517,7.241-5.1,9.793-4.414,3.172-9.655,2.965-11.655-.484a5.917,5.917,0,0,1-.759-3.448l-2.345,6.207H39.138L34.517,9.863Z" transform="translate(-0.104 -0.069)" fill="#686f5f"/>
    <path id="Path_1362" data-name="Path 1362" d="M33.516,7.172,30.758,0H22.964L19.171,9.931A14.518,14.518,0,0,1,22.137,7.1c4.413-3.173,9.654-2.966,11.655.413Z" transform="translate(-0.137 0)" fill="#686f5f"/>
    <path id="Path_1363" data-name="Path 1363" d="M38.134,21.777h6.207v-7.1c0-1.793.483-2.9,2.414-2.9,1.724,0,2.138,1.241,2.138,2.621v7.379H55.1V13.432c0-3.862-1.931-6-6-6a6.287,6.287,0,0,0-5.241,2.552V7.777H38.2v14Z" transform="translate(-0.273 -0.053)" fill="#686f5f"/>
    <path id="Path_1364" data-name="Path 1364" d="M71.623,21.776V21.5c-.827-.552-.827-.965-.827-1.793V13.155c0-3.31-.414-5.792-7.794-5.792-6.138,0-8.482,1.724-8.482,4.689h5.93c.138-1.173,1.311-1.379,2.139-1.379.621,0,2,.138,2,1.173,0,2.62-11.1-.276-11.1,6.068,0,2.9,2.62,4.207,5.586,4.207a8.436,8.436,0,0,0,5.862-1.862l.276,1.517ZM61.9,19.087c-1.241,0-1.931-.483-1.931-1.173,0-1.793,2.69-1.379,4.689-2.276.138,1.931-.621,3.448-2.758,3.448" transform="translate(-0.382 -0.052)" fill="#686f5f"/>
    <path id="Path_1365" data-name="Path 1365" d="M87.534,13.157c-.414-4.138-4.345-5.724-8.551-5.724-5.173,0-8.9,2.758-8.9,7.517,0,4.689,3.862,7.241,8.9,7.241,4.275,0,8.137-1.586,8.62-5.792H81.4a2.259,2.259,0,0,1-2.414,2.069c-1.793,0-2.69-1.38-2.69-3.518,0-1.655.414-3.793,2.69-3.793a2.206,2.206,0,0,1,1.586.551,1.783,1.783,0,0,1,.622,1.449Z" transform="translate(-0.501 -0.053)" fill="#686f5f"/>
    <path id="Path_1366" data-name="Path 1366" d="M104.061,21.776V21.5c-.827-.552-.827-.965-.827-1.793V13.155c0-3.31-.414-5.792-7.794-5.792-6.138,0-8.482,1.724-8.482,4.689h5.93c.138-1.173,1.311-1.379,2.139-1.379.689,0,2,.138,2,1.173,0,2.62-11.1-.276-11.1,6.068,0,2.9,2.62,4.207,5.586,4.207a8.436,8.436,0,0,0,5.862-1.862l.276,1.517Zm-9.724-2.69c-1.241,0-1.931-.483-1.931-1.173,0-1.793,2.69-1.379,4.689-2.276.138,1.931-.621,3.448-2.758,3.448" transform="translate(-0.614 -0.052)" fill="#686f5f"/>
    <path id="Path_1367" data-name="Path 1367" d="M111.01,7.808c-.138-2.207.552-2.207,2.552-2.207V2.084h-2.62c-3.932,0-6.069.827-6.069,5.724H102.8V10.98h2.069V21.738h6.206V11.049h2.553V7.876H111.01Z" transform="translate(-0.735 -0.015)" fill="#686f5f"/>
    <path id="Path_1368" data-name="Path 1368" d="M117.832,6.085H121.9l5.1-3.932H120.8Zm.138,7.172c0-1.518,1.035-2.415,2.9-2.415a2.721,2.721,0,0,1,2.759,2.415Zm11.793,2.758c.069-5.035-3.38-8.621-9.172-8.621-4.966,0-8.827,2.9-8.827,7.518,0,4.689,3.861,7.241,8.827,7.241,3.655,0,7.517-1.173,8.62-4.621h-5.93a2.483,2.483,0,0,1-2.345,1.241,2.835,2.835,0,0,1-3.034-2.758Z" transform="translate(-0.799 -0.015)" fill="#686f5f"/>
    <path id="Path_1369" data-name="Path 1369" d="M16.233,28.6l-.759-1.655L14.716,28.6ZM15.13,26.4h.759l1.793,3.724h-.69l-.551-1.1H14.509l-.552,1.1h-.689Z" transform="translate(-0.095 -0.188)" fill="#686f5f"/>
    <path id="Path_1370" data-name="Path 1370" d="M18.82,28.947a.536.536,0,0,0,.207.483c.208.276.622.346,1.173.346a2.114,2.114,0,0,0,.69-.069c.414-.138.621-.276.621-.552a.377.377,0,0,0-.276-.413,3.658,3.658,0,0,0-.759-.208l-.69-.138a1.946,1.946,0,0,1-.9-.276.829.829,0,0,1-.483-.689.9.9,0,0,1,.483-.828,2.29,2.29,0,0,1,1.311-.345,2.62,2.62,0,0,1,1.311.276.994.994,0,0,1,.552.9h-.621a3.327,3.327,0,0,0-.208-.483,1.429,1.429,0,0,0-1.035-.276,1.2,1.2,0,0,0-.827.207c-.138.138-.276.276-.276.414a.379.379,0,0,0,.276.414,3.381,3.381,0,0,0,.9.207l.689.138a5.556,5.556,0,0,1,.759.207.937.937,0,0,1,.484.759.95.95,0,0,1-.622.9,2.893,2.893,0,0,1-1.379.276,2.8,2.8,0,0,1-1.448-.345,1.042,1.042,0,0,1-.484-.965h.552Z" transform="translate(-0.131 -0.188)" fill="#686f5f"/>
    <path id="Path_1371" data-name="Path 1371" d="M26.99,26.946a1.664,1.664,0,0,1,.483,1.242,1.923,1.923,0,0,1-.552,1.379,2.528,2.528,0,0,1-1.862.621,2.918,2.918,0,0,1-1.793-.552,1.68,1.68,0,0,1-.552-1.379,1.824,1.824,0,0,1,.483-1.311,2.3,2.3,0,0,1,1.863-.689,2.615,2.615,0,0,1,1.931.689m-.552,2.345a1.69,1.69,0,0,0,.414-1.1,1.241,1.241,0,0,0-.483-1.035,1.687,1.687,0,0,0-1.242-.414,1.924,1.924,0,0,0-1.241.414,1.338,1.338,0,0,0-.483,1.173,1.4,1.4,0,0,0,.413,1.034,1.756,1.756,0,0,0,1.311.414,1.537,1.537,0,0,0,1.311-.483" transform="translate(-0.162 -0.188)" fill="#686f5f"/>
    <path id="Path_1372" data-name="Path 1372" d="M31.856,26.67a1.184,1.184,0,0,1,.552.828h-.621a1.076,1.076,0,0,0-.414-.552,1.727,1.727,0,0,0-.9-.208,1.623,1.623,0,0,0-1.173.414,1.516,1.516,0,0,0-.414,1.173A1.4,1.4,0,0,0,29.3,29.36a1.623,1.623,0,0,0,1.173.414,1.455,1.455,0,0,0,1.1-.414,1.294,1.294,0,0,0,.276-.621h.621a1.7,1.7,0,0,1-.552.965,2.294,2.294,0,0,1-1.586.484,2.549,2.549,0,0,1-1.449-.414,1.872,1.872,0,0,1-.759-1.587,2.047,2.047,0,0,1,.552-1.379,2.266,2.266,0,0,1,1.724-.552,2.263,2.263,0,0,1,1.449.414" transform="translate(-0.201 -0.187)" fill="#686f5f"/>
    <rect id="Rectangle_110" data-name="Rectangle 110" width="0.69" height="3.724" transform="translate(33.31 26.207)" fill="#686f5f"/>
    <path id="Path_1373" data-name="Path 1373" d="M37.836,28.6l-.69-1.655L36.319,28.6ZM36.8,26.4h.759l1.793,3.724h-.69l-.621-1.1H36.112l-.483,1.1H34.94Z" transform="translate(-0.25 -0.188)" fill="#686f5f"/>
    <path id="Path_1374" data-name="Path 1374" d="M43.456,26.67a1.184,1.184,0,0,1,.552.828h-.621a1.076,1.076,0,0,0-.414-.552,1.727,1.727,0,0,0-.9-.208,1.623,1.623,0,0,0-1.173.414,1.516,1.516,0,0,0-.414,1.173A1.4,1.4,0,0,0,40.9,29.36a1.623,1.623,0,0,0,1.173.414,1.455,1.455,0,0,0,1.1-.414,1.294,1.294,0,0,0,.276-.621h.621a1.7,1.7,0,0,1-.552.965,2.294,2.294,0,0,1-1.586.484,2.549,2.549,0,0,1-1.449-.414,1.872,1.872,0,0,1-.759-1.587,2.047,2.047,0,0,1,.552-1.379,2.266,2.266,0,0,1,1.724-.552,2.135,2.135,0,0,1,1.449.414" transform="translate(-0.284 -0.187)" fill="#686f5f"/>
    <rect id="Rectangle_111" data-name="Rectangle 111" width="0.69" height="3.724" transform="translate(44.827 26.207)" fill="#686f5f"/>
    <path id="Path_1375" data-name="Path 1375" d="M50.954,26.946a1.664,1.664,0,0,1,.483,1.242,1.923,1.923,0,0,1-.552,1.379,2.528,2.528,0,0,1-1.862.621,2.918,2.918,0,0,1-1.793-.552,1.68,1.68,0,0,1-.552-1.379,1.824,1.824,0,0,1,.483-1.311,2.3,2.3,0,0,1,1.863-.689,2.615,2.615,0,0,1,1.931.689M50.4,29.291a1.69,1.69,0,0,0,.414-1.1,1.241,1.241,0,0,0-.483-1.035,1.687,1.687,0,0,0-1.242-.414,1.924,1.924,0,0,0-1.241.414,1.338,1.338,0,0,0-.483,1.173,1.4,1.4,0,0,0,.413,1.034,1.756,1.756,0,0,0,1.311.414,1.537,1.537,0,0,0,1.311-.483" transform="translate(-0.334 -0.188)" fill="#686f5f"/>
    <path id="Path_1376" data-name="Path 1376" d="M52.374,26.4h.759l2.483,3.034V26.4h.621V30.12h-.759l-2.483-3.034V30.12h-.621Z" transform="translate(-0.374 -0.188)" fill="#686f5f"/>
    <path id="Path_1377" data-name="Path 1377" d="M59.251,26.4h.759l2.483,3.034V26.4h.621V30.12h-.759l-2.483-3.034V30.12h-.621Z" transform="translate(-0.424 -0.188)" fill="#686f5f"/>
    <path id="Path_1378" data-name="Path 1378" d="M66.731,28.6l-.759-1.655L65.214,28.6Zm-1.1-2.207h.759l1.793,3.724h-.69l-.483-1.1H65.076l-.551,1.1h-.69Z" transform="translate(-0.456 -0.188)" fill="#686f5f"/>
    <path id="Path_1379" data-name="Path 1379" d="M72.352,26.67a1.184,1.184,0,0,1,.552.828h-.621a1.076,1.076,0,0,0-.414-.552,1.727,1.727,0,0,0-.9-.208,1.623,1.623,0,0,0-1.173.414,1.516,1.516,0,0,0-.414,1.173A1.4,1.4,0,0,0,69.8,29.36a1.623,1.623,0,0,0,1.173.414,1.455,1.455,0,0,0,1.1-.414,1.294,1.294,0,0,0,.276-.621h.621a1.7,1.7,0,0,1-.552.965,2.294,2.294,0,0,1-1.586.484,2.549,2.549,0,0,1-1.449-.414,1.872,1.872,0,0,1-.759-1.587,2.047,2.047,0,0,1,.552-1.379,2.861,2.861,0,0,1,3.172-.138" transform="translate(-0.491 -0.187)" fill="#686f5f"/>
    <rect id="Rectangle_112" data-name="Rectangle 112" width="0.69" height="3.724" transform="translate(73.517 26.207)" fill="#686f5f"/>
    <path id="Path_1380" data-name="Path 1380" d="M79.85,26.946a1.664,1.664,0,0,1,.483,1.242,1.923,1.923,0,0,1-.552,1.379,2.528,2.528,0,0,1-1.862.621,2.918,2.918,0,0,1-1.793-.552,1.68,1.68,0,0,1-.552-1.379,1.824,1.824,0,0,1,.483-1.311,2.3,2.3,0,0,1,1.863-.689,2.615,2.615,0,0,1,1.931.689M79.3,29.291a1.69,1.69,0,0,0,.414-1.1,1.242,1.242,0,0,0-.483-1.035,1.687,1.687,0,0,0-1.242-.414,1.924,1.924,0,0,0-1.241.414,1.338,1.338,0,0,0-.483,1.173,1.4,1.4,0,0,0,.413,1.034,1.756,1.756,0,0,0,1.311.414,1.537,1.537,0,0,0,1.311-.483" transform="translate(-0.54 -0.188)" fill="#686f5f"/>
    <path id="Path_1381" data-name="Path 1381" d="M81.2,26.4h.828l2.414,3.034V26.4h.621V30.12h-.69l-2.552-3.034V30.12H81.2Z" transform="translate(-0.58 -0.188)" fill="#686f5f"/>
    <path id="Path_1382" data-name="Path 1382" d="M88.75,28.6l-.759-1.655L87.233,28.6Zm-1.1-2.207h.759L90.2,30.119h-.69l-.483-1.1h-2l-.552,1.1h-.689Z" transform="translate(-0.613 -0.188)" fill="#686f5f"/>
    <path id="Path_1383" data-name="Path 1383" d="M90.856,26.4h.69v3.31h2.482v.414H90.856Z" transform="translate(-0.649 -0.188)" fill="#686f5f"/>
    <path id="Path_1384" data-name="Path 1384" d="M98.2,29.705a1.353,1.353,0,0,0,.552-.069,1.008,1.008,0,0,0,.621-.414,1.377,1.377,0,0,0,.276-.552c0-.138.069-.276.069-.414a1.751,1.751,0,0,0-.346-1.1A1.419,1.419,0,0,0,98.2,26.74H97.033v2.966H98.2M96.343,26.4h2a2.325,2.325,0,0,1,1.587.552,1.662,1.662,0,0,1,.483,1.241,2.016,2.016,0,0,1-.276,1.1,1.969,1.969,0,0,1-1.793.828h-2Z" transform="translate(-0.689 -0.188)" fill="#686f5f"/>
    <path id="Path_1385" data-name="Path 1385" d="M101.414,26.4h3.518v.483h-2.9v1.1h2.69V28.4h-2.69v1.311H105v.414h-3.586Z" transform="translate(-0.725 -0.188)" fill="#686f5f"/>
    <path id="Path_1386" data-name="Path 1386" d="M106,26.4h.621v3.31H109.1v.414H106Z" transform="translate(-0.758 -0.188)" fill="#686f5f"/>
    <path id="Path_1387" data-name="Path 1387" d="M114.932,26.67a1.184,1.184,0,0,1,.552.828h-.621a1.077,1.077,0,0,0-.414-.552,1.727,1.727,0,0,0-.9-.208,1.623,1.623,0,0,0-1.173.414,1.516,1.516,0,0,0-.414,1.173,1.4,1.4,0,0,0,.414,1.035,1.623,1.623,0,0,0,1.173.414,1.455,1.455,0,0,0,1.1-.414,1.294,1.294,0,0,0,.276-.621h.621A1.7,1.7,0,0,1,115,29.7a2.294,2.294,0,0,1-1.586.484,2.549,2.549,0,0,1-1.449-.414,1.872,1.872,0,0,1-.759-1.587,2.047,2.047,0,0,1,.552-1.379,2.861,2.861,0,0,1,3.172-.138" transform="translate(-0.795 -0.187)" fill="#686f5f"/>
    <path id="Path_1388" data-name="Path 1388" d="M118.966,28.6l-.759-1.655-.759,1.655Zm-1.1-2.207h.759l1.793,3.724h-.759l-.483-1.1h-1.931l-.552,1.1H116Z" transform="translate(-0.829 -0.188)" fill="#686f5f"/>
    <path id="Path_1389" data-name="Path 1389" d="M121.141,26.4h3.38v.483h-2.69v1.1h2.344V28.4h-2.344V30.12h-.69Z" transform="translate(-0.866 -0.188)" fill="#686f5f"/>
    <path id="Path_1390" data-name="Path 1390" d="M125.378,26.4h3.586v.483h-2.9v1.1h2.69V28.4h-2.69v1.311h2.9v.414h-3.586Z" transform="translate(-0.896 -0.188)" fill="#686f5f"/>
    <path id="Path_1391" data-name="Path 1391" d="M129.539,6.175a1.767,1.767,0,0,0-.552,1.311,1.884,1.884,0,0,0,.552,1.31,1.763,1.763,0,0,0,1.311.552,1.883,1.883,0,0,0,1.862-1.862,2.018,2.018,0,0,0-.551-1.311,1.888,1.888,0,0,0-1.311-.552,1.767,1.767,0,0,0-1.311.552m2.828,2.9a2.207,2.207,0,0,1-3.793-1.586,2.241,2.241,0,0,1,.689-1.655,2.141,2.141,0,0,1,1.517-.622,2.126,2.126,0,0,1,2.207,2.207,1.81,1.81,0,0,1-.621,1.655m-1.311-2.344a.512.512,0,0,0-.345-.069h-.138v.69h.276a.512.512,0,0,0,.345-.069A.356.356,0,0,0,131.332,7c-.138-.137-.138-.207-.276-.275m-1.241,2V6.244h1.173a1,1,0,0,1,.483.138.726.726,0,0,1,.345.621.626.626,0,0,1-.207.484.988.988,0,0,1-.414.138.527.527,0,0,1,.346.138.679.679,0,0,1,.206.551v.414h-.621a.745.745,0,0,0-.069-.345c0-.138,0-.276-.069-.276,0-.069-.07-.138-.208-.208a.255.255,0,0,1-.207-.069H130.3v.9Z" transform="translate(-0.919 -0.037)" fill="#686f5f"/>
    <path id="Path_1392" data-name="Path 1392" d="M18.616,19.435C24.34,16.676,27.443,8.262,34.2,7.711c-4.275.965-9.1,11.448-15.586,11.724" transform="translate(-0.133 -0.055)" fill="#686f5f"/>
    <path id="Path_1393" data-name="Path 1393" d="M9.169,17.71c7.655.276,16.069-10.138,24.9-10.069C26,8.676,16.548,19.227,9.169,17.71" transform="translate(-0.066 -0.054)" fill="#686f5f"/>
    <path id="Path_1394" data-name="Path 1394" d="M0,16.673C11.517,16.466,26.276,5.5,34.069,7.639,25.448,6.811,8.965,18.535,0,16.673" transform="translate(0 -0.052)" fill="#686f5f"/>
    <path id="Path_1395" data-name="Path 1395" d="M39.037,5.835l.552.276-.552.138Z" transform="translate(-0.279 -0.042)" fill="#686f5f"/>
    <path id="Path_1396" data-name="Path 1396" d="M35.823,8.031c-.9.069-1.587-.069-1.725-.483-.137-.483.828-.759,2-1.1-.621,0-1.173-.138-1.379-.551a4.556,4.556,0,0,1-.622-.138,1.659,1.659,0,0,1,.552-.414c-.414,0-1.379-.621-1.449-1.1,0,0,2.207,1.035,2.483,1.1.207.069.345,0,.483.069.346.069.552.484.759.9a3.061,3.061,0,0,1,.69-.137.759.759,0,1,1,1.517,0c0,.413-.345.621-.759.621,0,.138-.069.207-.207.345A2.5,2.5,0,0,0,37.41,7c-.9,0-1.655.414-1.655.9Z" transform="translate(-0.237 -0.03)" fill="#686f5f"/>
    <path id="Path_1397" data-name="Path 1397" d="M35.981,7.844c0-.414.621-.759,1.379-.759a1.634,1.634,0,0,1,.621.138,2.273,2.273,0,0,1-1.172.621,3.488,3.488,0,0,1-.828.138Z" transform="translate(-0.257 -0.05)" fill="#686f5f"/>
  </g>
</svg>
