<svg id="Group_196" data-name="Group 196" xmlns="http://www.w3.org/2000/svg" xmlns:xlink="http://www.w3.org/1999/xlink" width="93.451" height="30" viewBox="0 0 93.451 30">
  <defs>
    <clipPath id="clip-path">
      <rect id="Rectangle_114" data-name="Rectangle 114" width="93.451" height="30" fill="#686f5f"/>
    </clipPath>
  </defs>
  <g id="Group_195" data-name="Group 195" clip-path="url(#clip-path)">
    <path id="Path_1398" data-name="Path 1398" d="M27.1,6.046l-5.265,5.3a7.879,7.879,0,0,0-5.4-3.971,7.4,7.4,0,0,0-4.905.677,7.713,7.713,0,0,0-4.147,8.482,8.037,8.037,0,0,0,7.716,6.318,15.737,15.737,0,0,1-1.881.681c-3.25.745-6.461.8-9.394-1.065a7.959,7.959,0,0,1-3.807-6.6A14.793,14.793,0,0,1,12.316.263C18.345-.792,23.24,1.355,27.1,6.046" transform="translate(-0.001 0.001)" fill="#686f5f"/>
    <path id="Path_1399" data-name="Path 1399" d="M35.618,114.354l-3.047-2.817H43.927v11.116l-2.98-3.031c-7.211,8.958-19.961,6.8-24.619-1.147,5.859,4.07,15.474,1.812,19.29-4.12" transform="translate(-13.973 -95.449)" fill="#686f5f"/>
    <path id="Path_1400" data-name="Path 1400" d="M557.76,38.157c1.342,0,2.684-.079,4.011.026a2.1,2.1,0,0,1,1.949,1.755,2.683,2.683,0,0,1-.879,2.984c-.149.115-.313.21-.521.348l1.608,2.073c-1.066.232-1.917.15-2.4-.9-.475-1.032-1.33-1.085-2.362-.851v1.784H557.76Zm1.447,4.208a16.283,16.283,0,0,0,2.044-.151,1.313,1.313,0,0,0,1.063-1.432,1.27,1.27,0,0,0-1.032-1.378,12.427,12.427,0,0,0-2.076-.025Z" transform="translate(-477.308 -32.628)" fill="#686f5f"/>
    <path id="Path_1401" data-name="Path 1401" d="M498.475,44.745a3.875,3.875,0,0,1-3.826-3.808,3.892,3.892,0,0,1,7.776.125,3.882,3.882,0,0,1-3.949,3.683m2.46-3.768a2.425,2.425,0,1,0-2.414,2.439,2.458,2.458,0,0,0,2.414-2.439" transform="translate(-423.299 -31.901)" fill="#686f5f"/>
    <path id="Path_1402" data-name="Path 1402" d="M296.654,38.154l-.856,1a11.84,11.84,0,0,0-1.964-.533,2.338,2.338,0,0,0-2.43,1.543,2.409,2.409,0,0,0,.725,2.734,2.609,2.609,0,0,0,2.968.191c.2-.137.27-.468.482-.862h-1.991V41h3.264c0,.819.011,1.6-.011,2.384a.654.654,0,0,1-.229.407,4.244,4.244,0,0,1-6.588-1.586,3.507,3.507,0,0,1,.767-3.748,3.882,3.882,0,0,1,4.156-1.072,11.808,11.808,0,0,1,1.706.769" transform="translate(-247.986 -31.829)" fill="#686f5f"/>
    <path id="Path_1403" data-name="Path 1403" d="M354.025,38.154v1.178H350.1v1.916h3.226v1.209h-3.23v1.7H354.2V45.4h-5.5V38.154Z" transform="translate(-298.4 -32.651)" fill="#686f5f"/>
    <path id="Path_1404" data-name="Path 1404" d="M449.818,43.613v1.822h-1.4V38.243a32.464,32.464,0,0,1,3.915.034c1.335.163,1.991,1.228,1.932,2.686a2.453,2.453,0,0,1-2.271,2.529c-.683.091-1.38.08-2.171.12m.036-1.22c1.042-.067,2.125.248,2.714-.863a1.407,1.407,0,0,0-.264-1.73,2.379,2.379,0,0,0-2.449-.238Z" transform="translate(-383.733 -32.688)" fill="#686f5f"/>
    <path id="Path_1405" data-name="Path 1405" d="M392.674,37.795a1.767,1.767,0,0,1,2.3.915,12.855,12.855,0,0,0,1.077,1.5,13.321,13.321,0,0,0,1.077-1.515,1.753,1.753,0,0,1,2.289-.9L397,41.348l2.508,3.623c-1.031.217-1.816.117-2.316-.893a12.676,12.676,0,0,0-1.139-1.62,12.932,12.932,0,0,0-1.17,1.645c-.494.988-1.278,1.072-2.309.879l2.528-3.645-2.429-3.541" transform="translate(-335.949 -32.25)" fill="#686f5f"/>
    <path id="Path_1406" data-name="Path 1406" d="M242.769,45.447a4.578,4.578,0,0,1-1.2-.026,1,1,0,0,1-.563-.6,1.081,1.081,0,0,0-1.375-.88,3.436,3.436,0,0,1-.934,0c-.94-.114-1.7.024-1.932,1.135-.032.152-.323.321-.516.353a7.8,7.8,0,0,1-1.175.016c.155-.325.273-.576.393-.826.955-1.989,1.9-3.982,2.88-5.959a.981.981,0,0,1,.628-.5c.174-.02.468.259.572.472,1.022,2.089,2.016,4.193,3.015,6.293.069.145.117.3.2.525m-3.848-5.214-1.128,2.444h2.257l-1.129-2.444" transform="translate(-201.17 -32.653)" fill="#686f5f"/>
    <path id="Path_1407" data-name="Path 1407" d="M609.755,45.371h-1.474V39.324h-2.312V38.108h6.045v1.187h-2.258Z" transform="translate(-518.563 -32.611)" fill="#686f5f"/>
    <path id="Path_1408" data-name="Path 1408" d="M453.625,113.542l1.5,2.387,1.617-2.545v3.572l-.121.01V114.47l-.185-.064-1.31,2.073-1.253-2.021-.168.013v2.518l-.2-.005v-3.368l.125-.073" transform="translate(-388.086 -97.029)" fill="#686f5f"/>
    <path id="Path_1409" data-name="Path 1409" d="M339.546,115.173c-.182-.086-.362-.178-.548-.256a1.554,1.554,0,0,0-1.973.536,1.413,1.413,0,0,0,.145,1.788,1.6,1.6,0,0,0,2.035.261c.206-.147.26-.507.429-.867l-.828-.044a1.138,1.138,0,0,1-.646-.172h1.72c-.147.445-.159,1.055-.456,1.268a1.958,1.958,0,0,1-2.24.048,1.727,1.727,0,0,1-.773-1.805,1.775,1.775,0,0,1,3.134-.758" transform="translate(-287.858 -97.973)" fill="#686f5f"/>
    <path id="Path_1410" data-name="Path 1410" d="M526.464,116.661c-.311-.657-.624-1.128-1.492-1.12a1.413,1.413,0,0,0-1.464,1.128l-.185-.166,1.646-3.648,1.655,3.658-.16.148m-1.472-3.18-.814,1.8H525.8l-.8-1.8" transform="translate(-447.838 -96.577)" fill="#686f5f"/>
    <path id="Path_1411" data-name="Path 1411" d="M389.845,116.708a1.42,1.42,0,0,0-1.466-1.132c-.89-.026-1.091.528-1.405,1.112l-.2-.154,1.615-3.637,1.646,3.621Zm-.624-1.375-.812-1.808-.806,1.808Z" transform="translate(-330.982 -96.613)" fill="#686f5f"/>
    <path id="Path_1412" data-name="Path 1412" d="M482.866,116.72a1.394,1.394,0,0,0-1.483-1.125c-.888-.022-1.111.509-1.41,1.121l-.191-.15,1.649-3.644,1.631,3.611-.2.187m-.64-1.373-.808-1.815-.807,1.815Z" transform="translate(-410.577 -96.635)" fill="#686f5f"/>
    <path id="Path_1413" data-name="Path 1413" d="M432.262,114.911h2.2l.013.155h-1.939v1.444h1.669l.005.219-1.678.078v1.27h2.058l.006.175h-2.338Z" transform="translate(-369.912 -98.336)" fill="#686f5f"/>
    <path id="Path_1414" data-name="Path 1414" d="M365.136,114.734c0,.615-.013,1.23,0,1.845a1.19,1.19,0,0,0,1.136,1.313,1.177,1.177,0,0,0,1.136-1.3c.013-.62,0-1.24,0-1.861l.212,0a20.781,20.781,0,0,1-.023,2.451,1.28,1.28,0,0,1-1.411.984,1.247,1.247,0,0,1-1.257-1.086,21.064,21.064,0,0,1-.02-2.335l.221-.013" transform="translate(-312.258 -98.179)" fill="#686f5f"/>
    <path id="Path_1415" data-name="Path 1415" d="M506.625,114.9v3.179h2.018q0,.089,0,.179h-2.2V114.9l.189-.006" transform="translate(-433.387 -98.324)" fill="#686f5f"/>
    <path id="Path_1416" data-name="Path 1416" d="M410,118.44v-3.087l-1.22-.119q0-.063.005-.126h2.66l.016.127-1.26.108v3.1l-.2,0" transform="translate(-349.821 -98.505)" fill="#686f5f"/>
  </g>
</svg>
