<svg id="Group_46" data-name="Group 46" xmlns="http://www.w3.org/2000/svg" xmlns:xlink="http://www.w3.org/1999/xlink" width="60" height="60" viewBox="0 0 60 60">
  <defs>
    <clipPath id="clip-path">
      <rect id="Rectangle_23" data-name="Rectangle 23" width="60" height="60" fill="none"/>
    </clipPath>
  </defs>
  <g id="Group_45" data-name="Group 45" transform="translate(0 0)" clip-path="url(#clip-path)">
    <path id="Path_474" data-name="Path 474" d="M0,30A30,30,0,1,1,30,60,30,30,0,0,1,0,30" transform="translate(0 0)" fill="#edf0e9"/>
    <path id="Path_475" data-name="Path 475" d="M23.263,43.649,12.2,38.3c-2.189-1.057-4.376-2.12-6.572-3.163a.886.886,0,0,1-.575-.916q.017-10.152,0-20.3A.889.889,0,0,1,5.635,13Q14.271,8.85,22.9,4.672a1.081,1.081,0,0,1,1.045,0Q32.562,8.847,41.2,13a.892.892,0,0,1,.58.914q-.017,10.152,0,20.3a.892.892,0,0,1-.578.916Q32.394,39.367,23.6,43.621a.157.157,0,0,0-.028.028Zm-.419-1.494V36.105q0-6.561,0-13.116a.513.513,0,0,0-.357-.578c-.368-.143-.718-.329-1.07-.506a.6.6,0,0,1-.35-.815c.15-.306.47-.394.856-.214.405.186.794.407,1.209.571a.781.781,0,0,0,.559,0c1.176-.546,2.341-1.119,3.51-1.683a1.751,1.751,0,0,1,.391-.147.508.508,0,0,1,.624.315.53.53,0,0,1-.184.679,2.214,2.214,0,0,1-.331.184c-1.112.536-2.221,1.082-3.34,1.6a.568.568,0,0,0-.382.6q.014,9.347.009,18.7c0,.134.012.265.018.437.177-.078.3-.129.428-.189q7.907-3.819,15.819-7.631a.566.566,0,0,0,.375-.6q-.017-9.35-.009-18.7v-.444c-.161.071-.276.117-.389.173-1.524.734-3.045,1.478-4.576,2.2a.484.484,0,0,0-.325.518c.012,2.115,0,4.231.012,6.346a.816.816,0,0,1-.525.836c-1.289.608-2.569,1.236-3.853,1.855-.723.348-1.066.136-1.066-.663,0-2.079-.007-4.157,0-6.234a.513.513,0,0,0-.334-.552q-8.311-4-16.608-8.015a.639.639,0,0,0-.635.007c-1.669.817-3.345,1.621-5.018,2.429-.094.046-.186.1-.322.175.154.078.265.136.378.191q5.842,2.824,11.689,5.647a3.354,3.354,0,0,1,.371.2.539.539,0,0,1,.212.7.518.518,0,0,1-.661.308,2.179,2.179,0,0,1-.421-.177l-11.9-5.741c-.134-.064-.269-.127-.447-.209v.426q0,9.368-.009,18.738a.56.56,0,0,0,.387.589q7.9,3.8,15.784,7.613c.134.067.269.127.472.221m17-28.509c-.081-.048-.11-.071-.145-.087Q31.67,9.683,23.641,5.814a.647.647,0,0,0-.486.021c-1.393.658-2.776,1.333-4.162,2-.085.041-.166.087-.3.157.163.085.269.147.382.2Q26.965,12,34.851,15.818a.582.582,0,0,0,.566-.012c1.37-.672,2.746-1.333,4.12-2,.09-.044.175-.1.3-.166M33.79,16.587c-.207-.106-.338-.175-.472-.242q-7.686-3.708-15.363-7.431a1.174,1.174,0,0,0-1.2.012c-.882.467-1.791.882-2.737,1.342.166.085.279.145.391.2l3.538,1.713q6.087,2.935,12.175,5.868a.676.676,0,0,0,.486.058c1.04-.476,2.067-.983,3.179-1.517m.4,1.116c-.136.048-.23.074-.318.115-.849.407-1.694.824-2.546,1.22a.434.434,0,0,0-.285.467c.009,1.618,0,3.234,0,4.852v.8c.136-.051.23-.076.318-.117.849-.407,1.694-.824,2.546-1.222a.435.435,0,0,0,.288-.463c-.012-1.556-.007-3.11-.007-4.664Z" transform="translate(6.581 5.908)" fill="#a08b67"/>
    <path id="Path_476" data-name="Path 476" d="M12.231,17.641a.534.534,0,0,1-.615.562,1.529,1.529,0,0,1-.428-.15Q8.92,16.959,6.651,15.862c-.124-.062-.3-.11-.35-.216-.092-.186-.2-.458-.129-.608.083-.168.348-.272.555-.348.092-.035.242.055.354.11q2.341,1.122,4.675,2.254c.253.122.47.267.474.587" transform="translate(8.005 19.116)" fill="#a08b67"/>
    <path id="Path_477" data-name="Path 477" d="M9.419,18.3a3.592,3.592,0,0,1-.435-.131c-.826-.394-1.653-.787-2.472-1.195a.57.57,0,0,1-.329-.783.563.563,0,0,1,.778-.265c.868.4,1.722.819,2.576,1.245a.5.5,0,0,1,.295.663,1.877,1.877,0,0,1-.412.465" transform="translate(7.974 20.647)" fill="#a08b67"/>
  </g>
</svg>
