<svg id="Group_97" data-name="Group 97" xmlns="http://www.w3.org/2000/svg" xmlns:xlink="http://www.w3.org/1999/xlink" width="32" height="20.706" viewBox="0 0 32 20.706">
  <defs>
    <clipPath id="clip-path">
      <rect id="Rectangle_67" data-name="Rectangle 67" width="32" height="20.706" fill="none"/>
    </clipPath>
  </defs>
  <g id="Group_96" data-name="Group 96" transform="translate(0 0)" clip-path="url(#clip-path)">
    <path id="Path_550" data-name="Path 550" d="M15.758,20.706,2.675,14.565a4.652,4.652,0,0,1,0-8.423L15.758,0,29.046,5.831a4.938,4.938,0,0,1,0,9.043Z" transform="translate(0 0)" fill="#d3c29e"/>
    <path id="Path_551" data-name="Path 551" d="M15.031,5.942a1.037,1.037,0,0,1,.466.2c.019.016.039.032.057.049.382.382.766.762,1.145,1.146a.8.8,0,0,1,.132,1,.71.71,0,0,1-.378.31.836.836,0,0,0-.516.461.71.71,0,0,0-.033.478,2.811,2.811,0,0,0,.635,1.115,3.858,3.858,0,0,0,1.208.96,1.075,1.075,0,0,0,.628.149.763.763,0,0,0,.65-.475.877.877,0,0,1,.355-.465.783.783,0,0,1,.928.081c.233.212.451.441.674.664.2.2.414.4.6.618a.817.817,0,0,1,.035.995,1.4,1.4,0,0,1-.144.171c-.223.227-.454.447-.674.678a1.188,1.188,0,0,1-.852.368,2.811,2.811,0,0,1-1.025-.176,6.911,6.911,0,0,1-1.8-.963,11.749,11.749,0,0,1-2.435-2.342,7.471,7.471,0,0,1-1.227-2.163,2.866,2.866,0,0,1-.179-1.075,1.177,1.177,0,0,1,.365-.837q.3-.288.593-.593a1.028,1.028,0,0,1,.607-.359Z" transform="translate(-1.525 -0.682)" fill="#fff"/>
  </g>
</svg>
