<svg id="Group_43" data-name="Group 43" xmlns="http://www.w3.org/2000/svg" xmlns:xlink="http://www.w3.org/1999/xlink" width="60" height="60" viewBox="0 0 60 60">
  <defs>
    <clipPath id="clip-path">
      <rect id="Rectangle_21" data-name="Rectangle 21" width="60" height="60" fill="none"/>
    </clipPath>
  </defs>
  <g id="Group_39" data-name="Group 39" transform="translate(0 0)" clip-path="url(#clip-path)">
    <path id="Path_463" data-name="Path 463" d="M0,30A30,30,0,1,1,30,60,30,30,0,0,1,0,30" transform="translate(0 0)" fill="#fffdfa"/>
    <path id="Path_464" data-name="Path 464" d="M35.089,8.006a7.158,7.158,0,0,1,1.212.539,2.362,2.362,0,0,1,1.059,2.015q.027,3.58,0,7.16A2.6,2.6,0,0,1,34.8,20.28c-.992.018-1.987,0-2.979.012a.609.609,0,0,0-.376.157c-.431.407-.844.836-1.267,1.253a.893.893,0,0,1-1.4,0c-.415-.411-.82-.834-1.247-1.234a.68.68,0,0,0-.425-.171q-4.7-.015-9.411,0a.654.654,0,0,0-.4.165c-.433.407-.844.838-1.267,1.253a.89.89,0,0,1-1.385,0c-.423-.417-.834-.846-1.267-1.253a.652.652,0,0,0-.4-.163c-.927-.016-1.851-.008-2.776-.008a2.628,2.628,0,0,1-2.709-2.147.918.918,0,0,0-.049-.134V10.286c.024-.083.047-.165.069-.25A2.545,2.545,0,0,1,8.769,8.362a7.015,7.015,0,0,1,.948-.356Zm-5.6,11.931c.36-.37.693-.7,1.011-1.041a1.131,1.131,0,0,1,.883-.37c1.08.012,2.162.006,3.243,0a.9.9,0,0,0,.992-1q0-3.391,0-6.782a.893.893,0,0,0-.994-.992H10.19a.893.893,0,0,0-1,.988q0,3.391,0,6.782a.9.9,0,0,0,1.015,1c1.07,0,2.143.008,3.215,0a1.133,1.133,0,0,1,.883.366c.327.344.667.677,1.023,1.037.36-.364.7-.7,1.029-1.039a1.105,1.105,0,0,1,.856-.362q5.185.006,10.375,0a1.105,1.105,0,0,1,.858.358c.329.342.667.677,1.039,1.051" transform="translate(7.196 7.746)" fill="#a08b67"/>
    <path id="Path_465" data-name="Path 465" d="M9.717,8.006a7.015,7.015,0,0,0-.948.356,2.541,2.541,0,0,0-1.263,1.674c-.022.083-.045.167-.069.25V8.006Z" transform="translate(7.196 7.746)" fill="#a08b67"/>
    <path id="Path_466" data-name="Path 466" d="M14.022,23.1a3.519,3.519,0,1,1,3.972-3.789,3.593,3.593,0,0,1-2.963,3.8l.624.11a6.151,6.151,0,0,1,4.978,5.9.893.893,0,0,1-.984,1H9.333a.89.89,0,0,1-.974-.982,6.15,6.15,0,0,1,5.362-5.981c.083-.01.163-.033.3-.063m4.734,5.257c-.128-1.8-2.188-3.49-4.244-3.492a4.322,4.322,0,0,0-4.277,3.492ZM14.508,17.844A1.753,1.753,0,1,0,16.249,19.6a1.756,1.756,0,0,0-1.741-1.757" transform="translate(8.088 15.567)" fill="#a08b67"/>
    <path id="Path_467" data-name="Path 467" d="M21.086,23.113a3.589,3.589,0,0,1-2.951-3.856,3.509,3.509,0,0,1,6.985,0,3.554,3.554,0,0,1-3.034,3.833c.378.071.691.12,1,.191a6.155,6.155,0,0,1,4.683,5.848.891.891,0,0,1-.966.992H16.454a.89.89,0,0,1-.964-.994,6.146,6.146,0,0,1,5.371-5.971,2.252,2.252,0,0,0,.224-.043m4.8,5.244a4.315,4.315,0,0,0-4.529-3.49c-1.926.1-4.045,1.96-3.97,3.49ZM21.627,21.35A1.753,1.753,0,1,0,19.874,19.6a1.761,1.761,0,0,0,1.753,1.745" transform="translate(14.987 15.567)" fill="#a08b67"/>
    <path id="Path_468" data-name="Path 468" d="M13.636,9.789h3.357A.883.883,0,1,1,17,11.543q-3.4,0-6.8,0a.882.882,0,1,1-.01-1.753c1.149,0,2.3,0,3.445,0" transform="translate(8.922 9.471)" fill="#a08b67"/>
    <path id="Path_469" data-name="Path 469" d="M20.808,11.544H17.422a.885.885,0,1,1-.014-1.753q3.385,0,6.77,0a.885.885,0,1,1-.014,1.753H20.808" transform="translate(15.878 9.471)" fill="#a08b67"/>
    <path id="Path_470" data-name="Path 470" d="M13.607,13.327H10.221a.885.885,0,1,1,.01-1.753q3.4,0,6.8,0a.879.879,0,1,1,.02,1.753c-1.149,0-2.3,0-3.445,0" transform="translate(8.922 11.196)" fill="#a08b67"/>
    <path id="Path_471" data-name="Path 471" d="M20.761,13.327c-1.12,0-2.237,0-3.357,0a.883.883,0,1,1-.008-1.753q3.4,0,6.8,0a.881.881,0,1,1,.008,1.753c-1.149,0-2.3,0-3.445,0" transform="translate(15.878 11.196)" fill="#a08b67"/>
  </g>
</svg>
