<svg id="Group_34" data-name="Group 34" xmlns="http://www.w3.org/2000/svg" xmlns:xlink="http://www.w3.org/1999/xlink" width="60" height="60" viewBox="0 0 60 60">
  <defs>
    <clipPath id="clip-path">
      <rect id="Rectangle_18" data-name="Rectangle 18" width="60" height="60" fill="none"/>
    </clipPath>
  </defs>
  <g id="Group_33" data-name="Group 33" transform="translate(0 0)" clip-path="url(#clip-path)">
    <path id="Path_439" data-name="Path 439" d="M0,30A30,30,0,1,1,30,60,30,30,0,0,1,0,30" transform="translate(0 0)" fill="#fffdfa"/>
    <path id="Path_440" data-name="Path 440" d="M26.865,4.471c.984.423,1.975.824,2.943,1.279a2.171,2.171,0,0,0,1.112.189,18.706,18.706,0,0,1,2.757-.051A3.5,3.5,0,0,1,35.93,7.17c.478.535.937,1.088,1.421,1.619a1.18,1.18,0,0,0,.468.3c.547.185,1.108.334,1.659.512a4.2,4.2,0,0,1,2.9,2.93q.277.909.6,1.8a1.076,1.076,0,0,0,.3.423c.458.4.94.767,1.4,1.163a4.14,4.14,0,0,1,1.511,3.593c-.047.716-.108,1.432-.144,2.149a.978.978,0,0,0,.12.464c.273.541.576,1.068.85,1.609a4.143,4.143,0,0,1,.031,3.825c-.26.549-.515,1.1-.818,1.625a1.912,1.912,0,0,0-.2,1.149,18.429,18.429,0,0,1,.053,2.715,3.54,3.54,0,0,1-1.275,2.261,8.827,8.827,0,0,1-1,.864,2.827,2.827,0,0,0-1.2,1.887,7.837,7.837,0,0,1-.317,1.027,4.192,4.192,0,0,1-2.682,2.629,6.112,6.112,0,0,1-.826.264,3.481,3.481,0,0,0-2.312,1.562,4.456,4.456,0,0,1-4.541,2.019c-.506-.063-1.017-.092-1.527-.108a1.293,1.293,0,0,0-.584.12c-.521.256-1.021.551-1.537.813a4.158,4.158,0,0,1-3.9.043c-.545-.266-1.1-.519-1.625-.819a1.887,1.887,0,0,0-1.11-.189,18.99,18.99,0,0,1-2.757.049,3.462,3.462,0,0,1-2.223-1.257c-.49-.543-.954-1.11-1.448-1.651a1.144,1.144,0,0,0-.47-.3c-.549-.185-1.11-.331-1.661-.51a4.2,4.2,0,0,1-2.892-2.936q-.277-.909-.6-1.8a1.075,1.075,0,0,0-.307-.421c-.47-.405-.966-.781-1.434-1.188A4.128,4.128,0,0,1,6.379,31.84c.049-.714.1-1.43.148-2.147a1.084,1.084,0,0,0-.065-.358,1.458,1.458,0,0,0-.116-.218,11.173,11.173,0,0,1-1.271-2.853V25.1c.348-.832.655-1.688,1.059-2.493A2.7,2.7,0,0,0,6.5,20.684a7.411,7.411,0,0,1-.1-1.029,4.012,4.012,0,0,1,1.6-3.786,5.769,5.769,0,0,0,2.259-3.437A3.9,3.9,0,0,1,13.12,9.6c.289-.089.573-.209.868-.272a2.928,2.928,0,0,0,1.977-1.348,6.175,6.175,0,0,1,.655-.8A3.856,3.856,0,0,1,19.393,5.8c.891-.031,1.788.083,2.684.1a1.755,1.755,0,0,0,.775-.163,12.3,12.3,0,0,1,2.855-1.261ZM8.036,31.769a2.4,2.4,0,0,0,1.1,2.52,6.13,6.13,0,0,1,2.656,4.039,2.48,2.48,0,0,0,1.824,1.859c.618.191,1.249.346,1.853.576a2.506,2.506,0,0,1,.872.573c.517.535.982,1.122,1.474,1.682a2.53,2.53,0,0,0,2.208.907c.716-.059,1.428-.151,2.145-.185a1.845,1.845,0,0,1,.828.161c.691.311,1.365.663,2.038,1.009a2.609,2.609,0,0,0,2.574-.033c.582-.313,1.155-.647,1.753-.931a1.853,1.853,0,0,1,.828-.171c.758.024,1.515.087,2.271.155a2.408,2.408,0,0,0,2.416-1.059,6.069,6.069,0,0,1,4.061-2.694,2.471,2.471,0,0,0,1.857-1.824c.195-.632.36-1.275.588-1.895a2.064,2.064,0,0,1,.5-.775c.561-.533,1.165-1.017,1.745-1.529a2.532,2.532,0,0,0,.905-2.21c-.057-.714-.152-1.426-.185-2.143a1.879,1.879,0,0,1,.163-.828c.311-.691.663-1.364,1.007-2.038a2.614,2.614,0,0,0-.031-2.574c-.315-.582-.649-1.155-.933-1.753a1.894,1.894,0,0,1-.171-.826c.024-.759.087-1.517.155-2.273A2.4,2.4,0,0,0,43.475,17.1a6.068,6.068,0,0,1-2.692-4.063,2.474,2.474,0,0,0-1.824-1.857c-.647-.2-1.3-.37-1.936-.6a1.866,1.866,0,0,1-.71-.458c-.537-.575-1.035-1.186-1.552-1.779a2.527,2.527,0,0,0-2.21-.905c-.714.059-1.428.152-2.145.185a1.841,1.841,0,0,1-.826-.161c-.728-.331-1.43-.714-2.151-1.062a2.522,2.522,0,0,0-2.387.051c-.608.323-1.208.667-1.826.968a1.791,1.791,0,0,1-.748.177,7.151,7.151,0,0,1-1.362-.1,3.472,3.472,0,0,0-3.974,1.657,3.441,3.441,0,0,1-2.357,1.653c-.39.075-.758.254-1.141.366a2.592,2.592,0,0,0-1.853,1.834c-.195.634-.36,1.275-.586,1.9a2.113,2.113,0,0,1-.5.775c-.561.533-1.165,1.017-1.745,1.527a2.524,2.524,0,0,0-.907,2.21c.059.714.152,1.428.185,2.145a1.882,1.882,0,0,1-.161.828c-.317.7-.675,1.387-1.025,2.076a2.568,2.568,0,0,0,.03,2.5c.311.584.649,1.157.927,1.755a2.091,2.091,0,0,1,.191.905c-.018.716-.1,1.43-.153,2.147" transform="translate(4.91 4.326)" fill="#a08b67"/>
    <path id="Path_441" data-name="Path 441" d="M7.433,23.707a16.752,16.752,0,0,1,12.46-16.58,1.668,1.668,0,0,1,.488-.067.824.824,0,0,1,.063,1.629,14.986,14.986,0,0,0-3.862,1.552A14.436,14.436,0,0,0,9.263,21.057a14.9,14.9,0,1,0,18.5-12.309c-.041-.01-.079-.028-.118-.037-.588-.165-.858-.551-.732-1.049.12-.474.576-.695,1.163-.545A15.213,15.213,0,0,1,32.554,9a16.218,16.218,0,0,1,7.994,14.9A16.564,16.564,0,0,1,7.974,27.371a15.4,15.4,0,0,1-.541-3.664" transform="translate(7.192 6.829)" fill="#a08b67"/>
    <path id="Path_442" data-name="Path 442" d="M17.008,17.049a.9.9,0,0,0,.549-.761c.1-.431.142-.874.258-1.3a11.831,11.831,0,0,1,.555-1.68,6.6,6.6,0,0,0,.606-2.513,4.458,4.458,0,0,1,.043-.537,1.655,1.655,0,0,1,2.339-1.448,3.889,3.889,0,0,1,2.461,4.657c-.081.334-.242.651-.3.986a3.546,3.546,0,0,0-.073,1.175c.146.881.333,1,1.214,1h5.8a2.577,2.577,0,0,1,2.6,1.665,2.5,2.5,0,0,1-.917,2.9.492.492,0,0,0-.126.38,3.192,3.192,0,0,1-.673,2.444.708.708,0,0,0-.128.466,3.326,3.326,0,0,1-.779,2.7.624.624,0,0,0-.146.423,3.177,3.177,0,0,1-2.768,3.644,29.917,29.917,0,0,1-7.142-.134c-1.041-.181-2.058-.5-3.093-.74-.132-.03-.3.077-.447.134a2.325,2.325,0,0,1-.7.281c-1.423.028-2.843.018-4.266.01a.794.794,0,0,1-.868-.881q-.009-6.213,0-12.423a.789.789,0,0,1,.876-.874c1.423-.008,2.845-.02,4.266.012a2.878,2.878,0,0,1,.846.307l.012.108m13.3,4.655c-.549,0-1.1,0-1.649,0s-.909-.3-.927-.781a.826.826,0,0,1,.893-.87c.413-.022.828-.016,1.243-.026a6.912,6.912,0,0,0,.948-.043.857.857,0,0,0,.736-.868.881.881,0,0,0-.84-.82c-.124-.012-.248-.006-.372-.006q-4,0-7.992,0c-.592,0-.917-.2-1.029-.636-.1-.4.1-.736.592-1.009.022-.012.031-.041.045-.065a4.157,4.157,0,0,1,.163-3.182,2.415,2.415,0,0,0-.173-2.115,1.9,1.9,0,0,0-1.287-.942c-.014.234-.024.409-.031.584a8.863,8.863,0,0,1-.614,2.772c-.289.752-.48,1.543-.708,2.318-.124.423-.2.864-.358,1.271a2.161,2.161,0,0,1-1.509,1.362c-.34.089-.411.248-.411.573.014,2.995.008,5.989.008,8.986,0,.136.012.27.018.4.71.169,1.4.3,2.07.5a12.741,12.741,0,0,0,4.242.58c1.088-.041,2.18-.008,3.27-.01a4.657,4.657,0,0,0,.62-.035,1.543,1.543,0,0,0,1.364-1.4,3.334,3.334,0,0,1-.909-.6c-.382-.517.033-1.157.75-1.236a1.176,1.176,0,0,0,1.092-1.289,3.106,3.106,0,0,1-.944-.466,1.025,1.025,0,0,1-.132-.795c.075-.35.392-.494.758-.531A1.2,1.2,0,0,0,30.309,21.7M12.691,29.116h2.656V18.293H12.691Z" transform="translate(10.647 8.408)" fill="#a08b67"/>
    <path id="Path_443" data-name="Path 443" d="M15.436,7.625a.826.826,0,1,1,.813.858.835.835,0,0,1-.813-.858" transform="translate(14.935 6.61)" fill="#a08b67"/>
  </g>
</svg>
