<svg id="Group_102" xmlns="http://www.w3.org/2000/svg" xmlns:xlink="http://www.w3.org/1999/xlink" width="215" height="52.019" viewBox="0 0 215 52.019">
  <defs>
    <clipPath id="clip-path">
      <rect id="Rectangle_4" width="215" height="52.018" fill="white"/>
    </clipPath>
  </defs>
  <rect id="Rectangle_1" width="2.025" height="11.043" transform="translate(0 27.546)" fill="white"/>
  <g id="Group_2" transform="translate(0 0)">
    <g id="Group_1" clip-path="url(#clip-path)">
      <path id="Path_1" d="M13.985,39.959a4.089,4.089,0,0,1,.846,2.887v5.436H12.671V42.845a2.12,2.12,0,0,0-.379-1.395,1.656,1.656,0,0,0-1.314-.443,3.42,3.42,0,0,0-2.209.952v6.323H6.606V39.265H8.767V40.1A4.01,4.01,0,0,1,11.4,39.071a3.426,3.426,0,0,1,2.589.888" transform="translate(-1.573 -9.304)" fill="white"/>
      <path id="Path_2" d="M28.706,33.249V46.894H26.545v-.709a3.99,3.99,0,0,1-2.516.984,3.793,3.793,0,0,1-2.952-1.226,5.13,5.13,0,0,1-1.113-3.565,6.009,6.009,0,0,1,.517-2.621,3.585,3.585,0,0,1,1.435-1.6,4.135,4.135,0,0,1,2.113-.533,3.988,3.988,0,0,1,2.516.968V33.249ZM26.545,44.394V40.379a3.442,3.442,0,0,0-2.1-.823,1.993,1.993,0,0,0-1.678.726,3.355,3.355,0,0,0-.565,2.1,3.38,3.38,0,0,0,.565,2.121,2,2,0,0,0,1.678.718,3.348,3.348,0,0,0,2.1-.823" transform="translate(-4.754 -7.917)" fill="white"/>
      <path id="Path_3" d="M42.946,39.325v9.016H40.785V47.5a4.009,4.009,0,0,1-2.629,1.033,3.4,3.4,0,0,1-2.588-.9,4.12,4.12,0,0,1-.847-2.9V39.325h2.161v5.419a2.119,2.119,0,0,0,.379,1.4,1.675,1.675,0,0,0,1.315.436,3.453,3.453,0,0,0,2.209-.936V39.325Z" transform="translate(-8.268 -9.364)" fill="white"/>
      <path id="Path_4" d="M49.957,48.358a7.909,7.909,0,0,1-1.71-.6V45.778a6.865,6.865,0,0,0,1.734.7,7.635,7.635,0,0,0,1.847.218q1.37,0,1.371-.984a.775.775,0,0,0-.234-.621,1.845,1.845,0,0,0-.734-.331l-1.323-.29a3.81,3.81,0,0,1-1.879-.9,2.374,2.374,0,0,1-.637-1.782q0-2.807,3.5-2.807a8.727,8.727,0,0,1,3.08.581v1.9A6.433,6.433,0,0,0,53.6,41a7.218,7.218,0,0,0-1.613-.178q-1.4,0-1.4.839a.662.662,0,0,0,.234.565,1.9,1.9,0,0,0,.7.29l1.306.29a4.076,4.076,0,0,1,1.936.92,2.532,2.532,0,0,1,.629,1.887,2.575,2.575,0,0,1-.968,2.177,4.161,4.161,0,0,1-2.6.742,8.932,8.932,0,0,1-1.871-.178" transform="translate(-11.489 -9.284)" fill="white"/>
      <path id="Path_5" d="M62.7,40.594v4.081a1.266,1.266,0,0,0,.194.807.905.905,0,0,0,.71.226,3.684,3.684,0,0,0,.984-.129v1.887a7.675,7.675,0,0,1-1.516.194,2.757,2.757,0,0,1-1.936-.565,2.3,2.3,0,0,1-.6-1.742V40.594H59.34V38.642h1.194V35.578H62.7v3.064H64.76v1.952Z" transform="translate(-14.13 -8.472)" fill="white"/>
      <path id="Path_6" d="M74.039,39.071v1.936h-.371a4.176,4.176,0,0,0-2.6,1v6.275H68.91V39.265h2.161v.9a3.886,3.886,0,0,1,2.6-1.1Z" transform="translate(-16.409 -9.304)" fill="white"/>
      <path id="Path_7" d="M77.97,34.075h2.161v2.436H77.97Zm0,4h2.161v9.016H77.97Z" transform="translate(-18.567 -8.114)" fill="white"/>
      <path id="Path_8" d="M89.525,39.8a2.327,2.327,0,0,1,1.1,1.274,6.263,6.263,0,0,1,.274,2.008v5.258H88.743v-.823a4.155,4.155,0,0,1-1.169.79,3.513,3.513,0,0,1-3.532-.572,2.925,2.925,0,0,1-.863-2.234,2.86,2.86,0,0,1,.9-2.251,3.568,3.568,0,0,1,2.46-.8,4.618,4.618,0,0,1,2.209.5,3.143,3.143,0,0,0-.153-.984,1.039,1.039,0,0,0-.54-.572,2.755,2.755,0,0,0-1.194-.2H85.339V39.325H87.1a4.965,4.965,0,0,1,2.427.476m-.782,6.121V44.5a3.829,3.829,0,0,0-1.758-.435,1.918,1.918,0,0,0-1.162.33,1.241,1.241,0,0,0-.451,1.073,1.282,1.282,0,0,0,.379,1.041,1.452,1.452,0,0,0,.96.315,3.17,3.17,0,0,0,2.032-.9" transform="translate(-19.807 -9.364)" fill="white"/>
      <path id="Path_9" d="M97.442,48.358a7.909,7.909,0,0,1-1.71-.6V45.778a6.865,6.865,0,0,0,1.734.7,7.635,7.635,0,0,0,1.847.218q1.37,0,1.371-.984a.775.775,0,0,0-.234-.621,1.845,1.845,0,0,0-.734-.331l-1.323-.29a3.81,3.81,0,0,1-1.879-.9,2.374,2.374,0,0,1-.637-1.782q0-2.807,3.5-2.807a8.726,8.726,0,0,1,3.08.581v1.9A6.432,6.432,0,0,0,101.087,41a7.217,7.217,0,0,0-1.613-.178q-1.4,0-1.4.839a.662.662,0,0,0,.234.565,1.9,1.9,0,0,0,.7.29l1.306.29a4.077,4.077,0,0,1,1.936.92,2.532,2.532,0,0,1,.629,1.887,2.575,2.575,0,0,1-.968,2.177,4.161,4.161,0,0,1-2.6.742,8.932,8.932,0,0,1-1.871-.178" transform="translate(-22.796 -9.284)" fill="white"/>
      <path id="Path_10" d="M122.7,35.112V47.338h-2.516l-5.21-8.581v8.581h-2.241V35.112h2.532l5.194,8.581V35.112Z" transform="translate(-26.844 -8.361)" fill="white"/>
      <path id="Path_11" d="M130.854,47.906a3.98,3.98,0,0,1-1.572-1.717,5.57,5.57,0,0,1-.523-2.444,5.481,5.481,0,0,1,.523-2.42,4,4,0,0,1,1.572-1.71,4.874,4.874,0,0,1,2.549-.629,4.8,4.8,0,0,1,2.524.629,4.009,4.009,0,0,1,1.564,1.71,5.472,5.472,0,0,1,.525,2.42,5.56,5.56,0,0,1-.525,2.444,3.994,3.994,0,0,1-1.564,1.717,4.8,4.8,0,0,1-2.524.629,4.875,4.875,0,0,1-2.549-.629m4.307-2.04a3.351,3.351,0,0,0,.613-2.121,3.317,3.317,0,0,0-.613-2.113,2.111,2.111,0,0,0-1.758-.775,2.155,2.155,0,0,0-1.783.775A3.286,3.286,0,0,0,131,43.745a3.32,3.32,0,0,0,.621,2.121,2.143,2.143,0,0,0,1.783.782,2.1,2.1,0,0,0,1.758-.782" transform="translate(-30.661 -9.284)" fill="white"/>
      <path id="Path_12" d="M151.371,39.325l-3.178,9.162h-2.709l-3.178-9.162h2.226l2.306,7.1,2.306-7.1Z" transform="translate(-33.887 -9.364)" fill="white"/>
      <path id="Path_13" d="M156.321,34.075h2.161v2.436h-2.161Zm0,4h2.161v9.016h-2.161Z" transform="translate(-37.224 -8.114)" fill="white"/>
      <path id="Path_14" d="M166.792,46.7a4.657,4.657,0,0,0,1.227-.162,8.012,8.012,0,0,0,1.339-.516l.581,1.71a5.924,5.924,0,0,1-1.581.621,8.175,8.175,0,0,1-1.822.185,5.1,5.1,0,0,1-2.564-.6,3.911,3.911,0,0,1-1.605-1.685,5.554,5.554,0,0,1-.54-2.516,5.458,5.458,0,0,1,.565-2.572,3.892,3.892,0,0,1,1.532-1.621,4.307,4.307,0,0,1,2.161-.549,3.9,3.9,0,0,1,2.96,1.121,4.625,4.625,0,0,1,1.089,3.282v.855h-6.049a2.44,2.44,0,0,0,2.709,2.452m-2.628-4.129h3.694a2.032,2.032,0,0,0-.517-1.323,1.741,1.741,0,0,0-1.258-.419,1.844,1.844,0,0,0-1.919,1.742" transform="translate(-38.535 -9.284)" fill="white"/>
      <path id="Path_15" d="M188.232,39.966a4.175,4.175,0,0,1,.823,2.879v5.435h-2.161V42.845a2.222,2.222,0,0,0-.355-1.395,1.486,1.486,0,0,0-1.226-.443,3.3,3.3,0,0,0-2.161,1,6.693,6.693,0,0,1,.049.839v5.435h-2.161V42.845a2.222,2.222,0,0,0-.355-1.395,1.485,1.485,0,0,0-1.226-.443,3.229,3.229,0,0,0-2.113.936v6.338h-2.161V39.265h2.161v.823a3.9,3.9,0,0,1,2.532-1.016,4.085,4.085,0,0,1,1.782.347,2.329,2.329,0,0,1,1.089,1.089,5.571,5.571,0,0,1,1.444-1.08,3.424,3.424,0,0,1,1.541-.355,3.233,3.233,0,0,1,2.5.9" transform="translate(-41.716 -9.304)" fill="white"/>
      <path id="Path_16" d="M203.3,38.153a3.569,3.569,0,0,1,1.444,1.605,6.991,6.991,0,0,1,0,5.274,3.567,3.567,0,0,1-1.444,1.6,4.18,4.18,0,0,1-2.12.533,3.988,3.988,0,0,1-2.516-.984v.71H196.5V33.25h2.161v5.338a3.982,3.982,0,0,1,2.516-.968,4.187,4.187,0,0,1,2.12.532m-.862,6.347A3.353,3.353,0,0,0,203,42.395a3.389,3.389,0,0,0-.565-2.113,1.977,1.977,0,0,0-1.662-.726,3.459,3.459,0,0,0-2.113.823V44.4a3.369,3.369,0,0,0,2.113.822,1.986,1.986,0,0,0,1.662-.718" transform="translate(-46.792 -7.918)" fill="white"/>
      <path id="Path_17" d="M215.773,39.071v1.936H215.4a4.176,4.176,0,0,0-2.6,1v6.275h-2.161V39.265h2.161v.9a3.886,3.886,0,0,1,2.6-1.1Z" transform="translate(-50.16 -9.304)" fill="white"/>
      <path id="Path_18" d="M223.952,46.7a4.657,4.657,0,0,0,1.227-.162,8.011,8.011,0,0,0,1.339-.516l.581,1.71a5.925,5.925,0,0,1-1.581.621,8.175,8.175,0,0,1-1.822.185,5.1,5.1,0,0,1-2.564-.6,3.912,3.912,0,0,1-1.605-1.685,5.554,5.554,0,0,1-.54-2.516,5.458,5.458,0,0,1,.565-2.572,3.892,3.892,0,0,1,1.532-1.621,4.307,4.307,0,0,1,2.161-.549,3.9,3.9,0,0,1,2.96,1.121,4.625,4.625,0,0,1,1.089,3.282v.855h-6.049a2.44,2.44,0,0,0,2.709,2.452m-2.628-4.129h3.694a2.032,2.032,0,0,0-.517-1.323,1.741,1.741,0,0,0-1.258-.419,1.844,1.844,0,0,0-1.919,1.742" transform="translate(-52.146 -9.284)" fill="white"/>
      <path id="Path_19" d="M232.4,47.539h2.257l-1.274,5.194h-1.952Z" transform="translate(-55.11 -11.32)" fill="white"/>
      <path id="Path_20" d="M242.568,46.639V44.607a9.248,9.248,0,0,0,4.338,1.016,2.633,2.633,0,0,0,1.678-.435,1.472,1.472,0,0,0,.549-1.162,1.229,1.229,0,0,0-.492-1.064,5.029,5.029,0,0,0-1.557-.645l-1.1-.306a8.27,8.27,0,0,1-1.629-.621,3.132,3.132,0,0,1-1.161-1.064,3.209,3.209,0,0,1-.468-1.815,3.453,3.453,0,0,1,1.082-2.75,4.482,4.482,0,0,1,3.048-.944,8.8,8.8,0,0,1,2.072.218,9.864,9.864,0,0,1,1.831.653v1.968a8.3,8.3,0,0,0-3.9-.92q-1.9,0-1.9,1.6a1.293,1.293,0,0,0,.443,1.048,4.183,4.183,0,0,0,1.475.613l1.113.306a7.924,7.924,0,0,1,1.727.661,3.254,3.254,0,0,1,1.177,1.1,3.366,3.366,0,0,1,.467,1.863,3.276,3.276,0,0,1-1.2,2.645,5,5,0,0,1-3.251.968,10,10,0,0,1-4.338-.9" transform="translate(-57.762 -8.291)" fill="white"/>
      <rect id="Rectangle_2" width="2.323" height="2.758" transform="translate(195.58 36.219)" fill="white"/>
      <path id="Path_21" d="M270.091,44.277h-4.919l-1.08,3.016h-2.258l4.436-12.371h2.709l4.452,12.371h-2.258Zm-.693-1.952-1.774-4.967-1.758,4.967Z" transform="translate(-62.349 -8.316)" fill="white"/>
      <rect id="Rectangle_3" width="2.323" height="2.758" transform="translate(212.677 36.219)" fill="white"/>
      <path id="Path_22" d="M36.861,66.288l-.05.554h-.228a4.637,4.637,0,0,1-1-.1,3.171,3.171,0,0,1-.831-.3,2.059,2.059,0,0,1-.781-.724,1.859,1.859,0,0,1-.281-1,1.707,1.707,0,0,1,.256-.912,2.113,2.113,0,0,1,.67-.68,2.888,2.888,0,0,1,.891-.366,4.5,4.5,0,0,1,1.073-.126h.17l.033.554h-.128a4.776,4.776,0,0,0-.783.056,2.918,2.918,0,0,0-.631.184,1.385,1.385,0,0,0-.648.52,1.337,1.337,0,0,0-.24.761,1.4,1.4,0,0,0,.226.812,1.484,1.484,0,0,0,.6.507,2.437,2.437,0,0,0,.653.2,4.6,4.6,0,0,0,.769.062h.261Z" transform="translate(-8.024 -14.914)" fill="white"/>
      <path id="Path_23" d="M52.393,64.7a2.5,2.5,0,0,1-.171.918,2.076,2.076,0,0,1-.494.748,1.948,1.948,0,0,1-.606.4,1.985,1.985,0,0,1-.755.136,2.036,2.036,0,0,1-.744-.135,1.858,1.858,0,0,1-.62-.395,2.035,2.035,0,0,1-.486-.744,2.56,2.56,0,0,1-.171-.934,2.5,2.5,0,0,1,.147-.874,2.016,2.016,0,0,1,.456-.718,1.923,1.923,0,0,1,.645-.444,1.977,1.977,0,0,1,.777-.155,2.043,2.043,0,0,1,.779.143,1.787,1.787,0,0,1,.622.427,2.125,2.125,0,0,1,.467.734,2.527,2.527,0,0,1,.153.9m-.661.029a2.325,2.325,0,0,0-.126-.757,1.535,1.535,0,0,0-.391-.62,1.116,1.116,0,0,0-.382-.242,1.281,1.281,0,0,0-.461-.085,1.237,1.237,0,0,0-.5.091,1.214,1.214,0,0,0-.4.285,1.559,1.559,0,0,0-.345.571,2.082,2.082,0,0,0-.126.719,2.266,2.266,0,0,0,.128.776,1.5,1.5,0,0,0,.414.609,1.136,1.136,0,0,0,.372.221,1.3,1.3,0,0,0,.446.077,1.28,1.28,0,0,0,.486-.091,1.135,1.135,0,0,0,.395-.264,1.592,1.592,0,0,0,.36-.579,2.04,2.04,0,0,0,.124-.711" transform="translate(-11.512 -14.884)" fill="white"/>
      <path id="Path_24" d="M66.935,60.71h-.206a2.128,2.128,0,0,0-.612.07,1.017,1.017,0,0,0-.4.239.818.818,0,0,0-.209.352,1.639,1.639,0,0,0-.072.5v.185H66.84v.484H65.434q0,1.339.007,2.486t.006,1.214h-.654q0-.066.008-1.163t.008-2.536H64v-.484h.814v-.2a2.062,2.062,0,0,1,.1-.649,1.447,1.447,0,0,1,.334-.539,1.547,1.547,0,0,1,.55-.35,2.3,2.3,0,0,1,.843-.136h.223Z" transform="translate(-15.239 -14.331)" fill="white"/>
      <path id="Path_25" d="M80.572,60.71h-.206a2.128,2.128,0,0,0-.612.07,1.017,1.017,0,0,0-.4.239.818.818,0,0,0-.209.352,1.639,1.639,0,0,0-.072.5v.185h1.406v.484H79.071q0,1.339.006,2.486t.007,1.214h-.654q0-.066.008-1.163t.008-2.536h-.814v-.484h.814v-.2a2.062,2.062,0,0,1,.1-.649,1.447,1.447,0,0,1,.334-.539,1.547,1.547,0,0,1,.55-.35,2.3,2.3,0,0,1,.843-.136h.223Z" transform="translate(-18.486 -14.331)" fill="white"/>
      <path id="Path_26" d="M95.087,64.55H92.1a1.826,1.826,0,0,0,.186.8,1.516,1.516,0,0,0,.558.606,1.83,1.83,0,0,0,.546.229,3.073,3.073,0,0,0,.736.076q.235,0,.432-.012l.242-.016-.074.549c-.022,0-.1.008-.219.014s-.27.011-.438.011a3.485,3.485,0,0,1-1.151-.171,2.194,2.194,0,0,1-.8-.474,2.13,2.13,0,0,1-.456-.645,1.989,1.989,0,0,1-.188-.872,2.445,2.445,0,0,1,.14-.852,2.3,2.3,0,0,1,.422-.707,1.614,1.614,0,0,1,.606-.434,1.905,1.905,0,0,1,.75-.153,1.863,1.863,0,0,1,.682.116,1.383,1.383,0,0,1,.517.351,1.761,1.761,0,0,1,.372.651,3.027,3.027,0,0,1,.133.928m-.641-.463a1.37,1.37,0,0,0-.349-.8,1,1,0,0,0-.747-.292,1.077,1.077,0,0,0-.773.3,1.582,1.582,0,0,0-.43.8Z" transform="translate(-21.78 -14.884)" fill="white"/>
      <path id="Path_27" d="M110.308,64.55h-2.989a1.826,1.826,0,0,0,.186.8,1.516,1.516,0,0,0,.558.606,1.83,1.83,0,0,0,.545.229,3.073,3.073,0,0,0,.736.076q.235,0,.432-.012l.242-.016-.074.549c-.022,0-.1.008-.219.014s-.27.011-.438.011a3.485,3.485,0,0,1-1.151-.171,2.194,2.194,0,0,1-.8-.474,2.13,2.13,0,0,1-.456-.645,1.989,1.989,0,0,1-.188-.872,2.445,2.445,0,0,1,.14-.852,2.305,2.305,0,0,1,.422-.707,1.614,1.614,0,0,1,.606-.434,1.905,1.905,0,0,1,.75-.153,1.863,1.863,0,0,1,.682.116,1.383,1.383,0,0,1,.517.351,1.761,1.761,0,0,1,.372.651,3.027,3.027,0,0,1,.133.928m-.641-.463a1.37,1.37,0,0,0-.349-.8,1,1,0,0,0-.747-.292,1.077,1.077,0,0,0-.773.3,1.582,1.582,0,0,0-.43.8Z" transform="translate(-25.405 -14.884)" fill="white"/>
      <path id="Path_28" d="M137.819,66.3l-.157,0-.211,0a8.436,8.436,0,0,1-1.224-.069,3.03,3.03,0,0,1-.864-.27,2,2,0,0,1-.835-.7,1.745,1.745,0,0,1-.285-.974,1.984,1.984,0,0,1,.318-1.113,2.108,2.108,0,0,1,.918-.758,3.3,3.3,0,0,1,.806-.25,4.882,4.882,0,0,1,.893-.085l-.012-1.905h.653q0,.082-.008,1.157t-.008,2.177q0,.872.006,1.576t.011,1.212m-.641-2.9v-.763a4.1,4.1,0,0,0-.779.07,2.722,2.722,0,0,0-.626.19,1.469,1.469,0,0,0-.641.543,1.492,1.492,0,0,0-.227.827,1.223,1.223,0,0,0,.219.731,1.578,1.578,0,0,0,.546.479,2.415,2.415,0,0,0,.642.229,3.576,3.576,0,0,0,.75.077h.107q0-.038,0-.618t0-1.765" transform="translate(-31.967 -14.331)" fill="white"/>
      <path id="Path_29" d="M151.218,61.37h-.728v-.711h.728Zm-.037,4.986h-.653c0-.044.006-.315.01-.814s.006-.91.006-1.236q0-.426,0-.936t-.015-1.2h.653q-.008.6-.014,1.114t-.006.924q0,.963.01,1.546c.007.389.011.589.011.6" transform="translate(-35.836 -14.445)" fill="white"/>
      <path id="Path_30" d="M166.351,62.781l-1.147,2.6q-.606,1.376-.626,1.421h-.484q-.021-.049-.6-1.344T162.3,62.822l.606-.275,1.453,3.444h.008l1.411-3.435Z" transform="translate(-38.649 -14.894)" fill="white"/>
      <path id="Path_31" d="M179.209,61.37h-.728v-.711h.728Zm-.037,4.986h-.653c0-.044.006-.315.01-.814s.006-.91.006-1.236q0-.426,0-.936t-.014-1.2h.653q-.008.6-.014,1.114t-.006.924q0,.963.01,1.546c.007.389.011.589.011.6" transform="translate(-42.501 -14.445)" fill="white"/>
      <path id="Path_32" d="M193.163,65.607a1.007,1.007,0,0,1-.149.545,1.184,1.184,0,0,1-.389.389,1.952,1.952,0,0,1-.6.238,3.345,3.345,0,0,1-.764.081c-.135,0-.275-.006-.42-.018l-.247-.023-.024-.542c.024,0,.12.011.287.023s.333.018.5.018a3.7,3.7,0,0,0,.372-.024,1.278,1.278,0,0,0,.376-.091.736.736,0,0,0,.306-.223.513.513,0,0,0,.1-.318.417.417,0,0,0-.087-.275,1.033,1.033,0,0,0-.24-.2,2.926,2.926,0,0,0-.453-.238,4.4,4.4,0,0,1-.481-.242,1.274,1.274,0,0,1-.424-.4.976.976,0,0,1-.147-.537.948.948,0,0,1,.168-.55,1.232,1.232,0,0,1,.45-.392,1.615,1.615,0,0,1,.54-.176,3.952,3.952,0,0,1,.574-.043c.168,0,.306,0,.414.008l.186.008.046.55c-.019,0-.1-.006-.255-.017s-.315-.017-.494-.017a1.923,1.923,0,0,0-.363.034,1.094,1.094,0,0,0-.292.094.608.608,0,0,0-.254.219.478.478,0,0,0-.077.248.411.411,0,0,0,.108.285.993.993,0,0,0,.252.2q.17.1.464.235a4.132,4.132,0,0,1,.427.219,1.448,1.448,0,0,1,.441.4.919.919,0,0,1,.152.53" transform="translate(-45.38 -14.907)" fill="white"/>
      <path id="Path_33" d="M205.8,61.37h-.728v-.711h.728Zm-.037,4.986h-.654q0-.066.01-.814t.006-1.236q0-.426,0-.936t-.015-1.2h.654q-.009.6-.015,1.114t-.006.924q0,.963.01,1.546c.007.389.011.589.011.6" transform="translate(-48.833 -14.445)" fill="white"/>
      <path id="Path_34" d="M221.132,64.7a2.5,2.5,0,0,1-.171.918,2.077,2.077,0,0,1-.494.748,1.947,1.947,0,0,1-.606.4,1.985,1.985,0,0,1-.755.136,2.036,2.036,0,0,1-.744-.135,1.857,1.857,0,0,1-.62-.395,2.035,2.035,0,0,1-.486-.744,2.56,2.56,0,0,1-.171-.934,2.5,2.5,0,0,1,.147-.874,2.016,2.016,0,0,1,.456-.718,1.923,1.923,0,0,1,.645-.444,1.977,1.977,0,0,1,.777-.155,2.043,2.043,0,0,1,.779.143,1.786,1.786,0,0,1,.622.427,2.124,2.124,0,0,1,.467.734,2.526,2.526,0,0,1,.153.9m-.661.029a2.324,2.324,0,0,0-.126-.757,1.535,1.535,0,0,0-.391-.62,1.116,1.116,0,0,0-.382-.242,1.281,1.281,0,0,0-.461-.085,1.237,1.237,0,0,0-.5.091,1.215,1.215,0,0,0-.4.285,1.559,1.559,0,0,0-.345.571,2.081,2.081,0,0,0-.126.719,2.266,2.266,0,0,0,.128.776,1.5,1.5,0,0,0,.414.609,1.136,1.136,0,0,0,.372.221,1.3,1.3,0,0,0,.447.077,1.28,1.28,0,0,0,.486-.091,1.135,1.135,0,0,0,.395-.264,1.591,1.591,0,0,0,.36-.579,2.04,2.04,0,0,0,.124-.711" transform="translate(-51.694 -14.884)" fill="white"/>
      <path id="Path_35" d="M236.883,66.795h-.653c0-.077.006-.332.01-.765s.006-.7.006-.8c0-.144,0-.355,0-.635s0-.485-.006-.614a1.129,1.129,0,0,0-.182-.682.723.723,0,0,0-.587-.207,1.743,1.743,0,0,0-.624.149,5.022,5.022,0,0,0-.753.38c0,.03,0,.194,0,.492s0,.569,0,.814q0,.48.01,1.158t.011.711h-.654q0-.029.008-.507t.008-1.419q0-.434,0-1.017t-.014-1.24h.645l0,.475,0,.008a5.716,5.716,0,0,1,.965-.461,2.094,2.094,0,0,1,.643-.13,1.123,1.123,0,0,1,.849.333,1.26,1.26,0,0,1,.32.911q0,.521-.006.9t-.006.614q0,.376.01.94t.011.593" transform="translate(-55.591 -14.884)" fill="white"/>
      <path id="Path_36" d="M140.134,21.589a.24.24,0,0,1-.049-.449c.938-.466,2.941-1.681,3.307-3.707.464-2.561.373-6,4.389-8.157a.8.8,0,0,1,.979.161c.721.806,1.807,2.924-.137,7.5a7.259,7.259,0,0,1-8.49,4.652" transform="translate(-33.326 -2.185)" fill="white"/>
      <path id="Path_37" d="M144.152,7.675c-.573.319-4.218,2.227-4.362,6.11a6.933,6.933,0,0,1-3.1,5.589c-.557.539-.974.261-.974.261a4.042,4.042,0,0,1-1.972-3.926,4.452,4.452,0,0,1-2.148-1c-2.657-2.089-3.782-6.474-1.217-9.056a.424.424,0,0,1,.464.459c.017.5.018,3.674,2.61,5.165a5.627,5.627,0,0,1,1.32,1.041c.164-.331.345-.661.542-.985-1.566-1.165-3.666-2.4-3.7-5.7a.612.612,0,0,1,.463-.614c.808-.2,2.644-.187,5.07,2.784a7.421,7.421,0,0,1,.491.675c1.927-1.748,4.343-2.692,6.753-1.623a.552.552,0,0,1-.244.811" transform="translate(-30.703 -1.18)" fill="white"/>
      <path id="Path_38" d="M137.424,21.953A10.976,10.976,0,1,1,148.4,10.976a10.989,10.989,0,0,1-10.976,10.976m0-21.438a10.462,10.462,0,1,0,10.462,10.462A10.474,10.474,0,0,0,137.424.514" transform="translate(-30.111 0)" fill="white"/>
    </g>
  </g>
</svg>
